<svg width="289" height="289" viewBox="0 0 289 289" fill="none" xmlns="http://www.w3.org/2000/svg">
<path d="M60.2854 216.033L48.7254 216.207C44.847 216.264 40.934 216.293 37.0325 216.299H36.7666V216.033V209.565V209.276H37.0614L48.685 209.317L54.4996 209.369L60.3143 209.438H60.4415V209.56L60.2854 216.033ZM60.2854 216.033L60.1583 209.565L60.2854 209.693L54.4707 209.762L48.6561 209.814L37.0325 209.854L37.3157 209.565V216.033L37.0498 215.767C40.8993 215.767 44.7372 215.802 48.6098 215.86L60.2854 216.033Z" fill="#EBEBEB"/>
<path d="M47.3093 217.721H24.0564V224.189H47.3093V217.721Z" fill="#EBEBEB"/>
<path d="M172.868 241.026H149.615V247.494H172.868V241.026Z" fill="#EBEBEB"/>
<path d="M264.944 163.273H241.691V169.741H264.944V163.273Z" fill="#EBEBEB"/>
<path d="M201.497 31.9056L189.937 32.079C186.058 32.1368 182.145 32.1657 178.238 32.1715H177.972V31.9056V25.4378V25.1488H178.261L189.89 25.1892L195.699 25.2413L201.514 25.3106H201.641V25.432L201.497 31.9056ZM201.497 31.9056L201.375 25.432L201.497 25.5592L195.682 25.6285L189.873 25.6805L178.244 25.721L178.533 25.432V31.8998L178.267 31.6339C182.111 31.6339 185.954 31.6686 189.827 31.7264L201.497 31.9056Z" fill="#EBEBEB"/>
<path d="M214.467 33.5934H191.214V40.0612H214.467V33.5934Z" fill="#EBEBEB"/>
<path d="M47.3093 31.9056L35.7493 32.079C31.8709 32.1368 27.9579 32.1657 24.0506 32.1715H23.7847V31.9056V25.4378V25.1488H24.0737L35.7031 25.1892L41.5178 25.2413L47.2978 25.3106H47.4249V25.432L47.3093 31.9056ZM47.3093 31.9056L47.1879 25.432L47.3093 25.5592L41.5293 25.6285L35.7146 25.6805L24.0853 25.721L24.3743 25.432V31.8998L24.1084 31.6339C27.9521 31.6339 31.7958 31.6686 35.6684 31.7264L47.3093 31.9056Z" fill="#EBEBEB"/>
<path d="M152.326 119.686H129.073V126.154H152.326V119.686Z" fill="#EBEBEB"/>
<path d="M257.84 29.4607H218.773V76.8509H257.84V29.4607Z" fill="#EBEBEB"/>
<path d="M253.378 33.7841H223.235V72.5217H253.378V33.7841Z" fill="white"/>
<path d="M224.409 33.7841H223.235V72.5217H224.409V33.7841Z" fill="#C7C7C7"/>
<path d="M259.013 29.4607H257.84V76.8509H259.013V29.4607Z" fill="#C7C7C7"/>
<path d="M238.974 63.9152H246.084V42.7431H238.974V63.9152Z" fill="#EBEBEB"/>
<path d="M249.476 49.7889H229.946V38.8069H249.476V49.7889ZM230.524 49.2109H248.898V39.3849H230.524V49.2109Z" fill="#EBEBEB"/>
<path d="M257.84 146.246H218.773V193.636H257.84V146.246Z" fill="#EBEBEB"/>
<path d="M253.378 150.575H223.235V189.312H253.378V150.575Z" fill="white"/>
<path d="M224.409 150.575H223.235V189.312H224.409V150.575Z" fill="#C7C7C7"/>
<path d="M259.013 146.246H257.84V193.636H259.013V146.246Z" fill="#C7C7C7"/>
<path d="M240.448 159.534H233.339V180.706H240.448V159.534Z" fill="#EBEBEB"/>
<path d="M249.476 166.58H229.946V155.627H249.476V166.58ZM230.524 166.002H248.898V156.205H230.524V166.002Z" fill="#EBEBEB"/>
<path d="M257.84 88.0699H218.773V135.46H257.84V88.0699Z" fill="#EBEBEB"/>
<path d="M253.378 92.3933H223.235V131.131H253.378V92.3933Z" fill="white"/>
<path d="M224.409 92.3933H223.235V131.131H224.409V92.3933Z" fill="#C7C7C7"/>
<path d="M259.013 88.0699H257.84V135.46H259.013V88.0699Z" fill="#C7C7C7"/>
<path d="M241.471 102.404H235.385V117.796H241.471V102.404Z" fill="#EBEBEB"/>
<path d="M248.176 122.663H231.24V111.473H248.176V122.663ZM231.818 122.085H247.598V112.051H231.818V122.085Z" fill="#DBDBDB"/>
<path d="M44.9684 198.688C54.5343 208.08 56.1411 222.53 54.1239 235.246C54.0719 235.535 53.6268 235.454 53.6268 235.188C53.6268 232.298 53.7135 229.408 53.7019 226.582C53.6499 226.449 53.6095 226.327 53.5574 226.195C51.0605 224.38 48.76 222.328 47.3382 219.519C45.7429 216.374 45.1129 212.831 43.8702 209.548C43.7546 209.236 44.0898 209.328 44.3094 209.49C50.1299 213.779 51.9853 218.397 53.6557 224.57C53.6194 221.344 53.2807 218.127 52.6442 214.964C51.3842 209.103 48.8988 203.3 44.6909 198.953C44.6735 198.935 44.6598 198.914 44.6506 198.89C44.6414 198.867 44.637 198.842 44.6375 198.816C44.6381 198.791 44.6436 198.766 44.6537 198.743C44.6639 198.72 44.6785 198.699 44.6967 198.682C44.7149 198.664 44.7364 198.651 44.7599 198.641C44.7834 198.632 44.8085 198.628 44.8337 198.628C44.8589 198.629 44.8838 198.634 44.9069 198.645C44.93 198.655 44.9509 198.669 44.9684 198.688Z" fill="#263238"/>
<path d="M43.1708 199.78C41.5235 199.838 40.4889 202.468 39.2057 203.248C39.0709 203.357 38.9148 203.436 38.7474 203.481C38.58 203.525 38.4051 203.534 38.234 203.507C38.0628 203.48 37.8994 203.417 37.7541 203.323C37.6089 203.228 37.4851 203.104 37.3908 202.959C36.1192 201.184 37.8648 199 39.5063 197.757C38.3503 198.237 37.3619 199.086 36.0961 199.323C35.9344 199.377 35.7629 199.396 35.5933 199.378C35.4238 199.36 35.2602 199.305 35.1137 199.218C34.9671 199.13 34.8412 199.013 34.7444 198.872C34.6476 198.732 34.5823 198.572 34.5528 198.404C33.9748 195.988 37.0324 194.936 39.1132 194.861C38.1017 194.156 35.2117 192.249 36.7492 191.312C38.2867 190.376 41.6969 193.098 42.8067 193.994C44.4308 195.318 46.3729 197.289 46.4481 199.352C46.5405 201.768 44.4366 200.289 43.1708 199.78Z" fill="#00ADB5"/>
<path opacity="0.1" d="M43.1708 199.78C41.5235 199.838 40.4889 202.468 39.2057 203.248C39.0709 203.357 38.9148 203.436 38.7474 203.481C38.58 203.525 38.4051 203.534 38.234 203.507C38.0628 203.48 37.8994 203.417 37.7541 203.323C37.6089 203.228 37.4851 203.104 37.3908 202.959C36.1192 201.184 37.8648 199 39.5063 197.757C38.3503 198.237 37.3619 199.086 36.0961 199.323C35.9344 199.377 35.7629 199.396 35.5933 199.378C35.4238 199.36 35.2602 199.305 35.1137 199.218C34.9671 199.13 34.8412 199.013 34.7444 198.872C34.6476 198.732 34.5823 198.572 34.5528 198.404C33.9748 195.988 37.0324 194.936 39.1132 194.861C38.1017 194.156 35.2117 192.249 36.7492 191.312C38.2867 190.376 41.6969 193.098 42.8067 193.994C44.4308 195.318 46.3729 197.289 46.4481 199.352C46.5405 201.768 44.4366 200.289 43.1708 199.78Z" fill="black"/>
<path d="M43.6448 200.185C41.5408 199.231 37.5006 200.606 37.1538 199.809C36.4602 198.19 39.6855 197.075 41.431 196.861C39.8242 196.428 36.7492 195.734 36.8417 194.185C36.9573 192.295 41.564 193.919 43.8933 195.705C46.8295 197.959 46.7833 200.133 46.3209 200.566C45.662 201.144 43.9916 200.346 43.6448 200.185Z" fill="#00ADB5"/>
<path d="M66.7532 197.763C56.8347 206.756 54.6788 221.172 56.2105 233.934C56.2567 234.223 56.7018 234.159 56.7134 233.893C56.8232 231.003 56.8463 228.113 56.9619 225.287C57.0197 225.16 57.0659 225.039 57.1237 224.911C59.6901 223.177 62.0599 221.23 63.5916 218.472C65.3256 215.392 66.0654 211.877 67.4121 208.646C67.5393 208.334 67.1983 208.415 66.9729 208.566C60.9963 212.612 58.9676 217.178 57.0659 223.281C57.2221 220.057 57.6827 216.854 58.4416 213.716C59.9213 207.936 62.6263 202.208 66.996 198.023C67.1578 197.867 66.9266 197.601 66.7532 197.763Z" fill="#263238"/>
<path d="M68.5103 198.919C70.1518 199.04 71.0824 201.705 72.3309 202.525C72.4611 202.641 72.6142 202.727 72.7801 202.779C72.9459 202.83 73.1209 202.846 73.2934 202.825C73.466 202.805 73.6321 202.748 73.7811 202.658C73.93 202.569 74.0582 202.448 74.1574 202.306C75.4984 200.572 73.8395 198.329 72.2442 197.046C73.4002 197.572 74.3366 198.456 75.5908 198.74C75.7505 198.8 75.9214 198.825 76.0917 198.813C76.262 198.802 76.4277 198.753 76.5776 198.671C76.7274 198.59 76.8578 198.476 76.9599 198.339C77.0619 198.203 77.1332 198.045 77.1688 197.878C77.8161 195.485 74.8568 194.295 72.7471 194.162C73.7817 193.503 76.7468 191.705 75.244 190.694C73.7412 189.682 70.2328 192.289 69.0883 193.144C67.4121 194.399 65.4007 196.295 65.2504 198.346C65.0597 200.78 67.2214 199.375 68.5103 198.919Z" fill="#00ADB5"/>
<path opacity="0.1" d="M68.5103 198.919C70.1518 199.04 71.0824 201.705 72.3309 202.525C72.4611 202.641 72.6142 202.727 72.7801 202.779C72.9459 202.83 73.1209 202.846 73.2934 202.825C73.466 202.805 73.6321 202.748 73.7811 202.658C73.93 202.569 74.0582 202.448 74.1574 202.306C75.4984 200.572 73.8395 198.329 72.2442 197.046C73.4002 197.572 74.3366 198.456 75.5908 198.74C75.7505 198.8 75.9214 198.825 76.0917 198.813C76.262 198.802 76.4277 198.753 76.5776 198.671C76.7274 198.59 76.8578 198.476 76.9599 198.339C77.0619 198.203 77.1332 198.045 77.1688 197.878C77.8161 195.485 74.8568 194.295 72.7471 194.162C73.7817 193.503 76.7468 191.705 75.244 190.694C73.7412 189.682 70.2328 192.289 69.0883 193.144C67.4121 194.399 65.4007 196.295 65.2504 198.346C65.0597 200.78 67.2214 199.375 68.5103 198.919Z" fill="black"/>
<path d="M68.019 199.306C70.1576 198.433 74.14 199.959 74.5157 199.179C75.2729 197.584 72.0881 196.352 70.3541 196.069C71.9783 195.699 75.0764 195.121 75.0417 193.572C74.9954 191.676 70.3368 193.127 67.9381 194.821C64.9209 196.959 64.8573 199.133 65.3255 199.583C65.9671 200.208 67.6606 199.45 68.019 199.306Z" fill="#00ADB5"/>
<path d="M56.644 221.518C55.9714 226.33 54.9417 231.085 53.5632 235.743C53.5441 235.835 53.4892 235.916 53.4106 235.967C53.332 236.019 53.2362 236.037 53.1442 236.018C53.0522 235.998 52.9716 235.944 52.9201 235.865C52.8686 235.786 52.8505 235.691 52.8696 235.599C53.5228 231.217 54.7077 226.929 55.3608 222.53C56.0711 218.096 56.3267 213.601 56.1238 209.115C55.7018 201.734 53.6962 193.873 48.8814 188.099C48.7716 187.96 48.997 187.763 49.1069 187.89C58.7537 199.144 57.1989 212.935 57.1989 214.172C58.5687 209.513 59.9733 204.178 65.1406 199.433C65.366 199.231 65.5394 199.329 65.4989 199.676C64.5741 208.311 62.1754 212.825 57.1642 217.444C57.0081 218.808 56.8289 220.172 56.644 221.518Z" fill="#263238"/>
<path d="M48.7601 189.387C47.0261 188.619 44.6332 190.827 42.9165 190.983C42.009 191.064 41.3328 190.705 41.1825 189.769C40.7548 187.289 43.6679 185.896 45.9857 185.451C44.5233 185.359 43.0957 185.752 41.6565 185.365C41.4597 185.341 41.2704 185.275 41.1016 185.172C40.9328 185.068 40.7884 184.929 40.6786 184.764C40.5687 184.599 40.4958 184.413 40.4651 184.217C40.4343 184.021 40.4464 183.821 40.5005 183.631C41.1363 180.845 44.8297 181.255 47.0145 182.249C46.3209 181.012 44.2806 177.579 46.344 177.377C48.4075 177.174 50.5808 181.723 51.2802 183.214C52.3032 185.399 53.3205 188.416 52.361 190.601C51.2628 193.15 49.8236 190.549 48.7601 189.387Z" fill="#00ADB5"/>
<path opacity="0.1" d="M48.7601 189.387C47.0261 188.619 44.6332 190.827 42.9165 190.983C42.009 191.064 41.3328 190.705 41.1825 189.769C40.7548 187.289 43.6679 185.896 45.9857 185.451C44.5233 185.359 43.0957 185.752 41.6565 185.365C41.4597 185.341 41.2704 185.275 41.1016 185.172C40.9328 185.068 40.7884 184.929 40.6786 184.764C40.5687 184.599 40.4958 184.413 40.4651 184.217C40.4343 184.021 40.4464 183.821 40.5005 183.631C41.1363 180.845 44.8297 181.255 47.0145 182.249C46.3209 181.012 44.2806 177.579 46.344 177.377C48.4075 177.174 50.5808 181.723 51.2802 183.214C52.3032 185.399 53.3205 188.416 52.361 190.601C51.2628 193.15 49.8236 190.549 48.7601 189.387Z" fill="black"/>
<path d="M49.0549 190.052C47.3209 188 42.4657 187.393 42.5061 186.393C42.5986 184.359 46.5117 184.833 48.4306 185.486C46.9856 184.226 44.1418 181.96 45.0146 180.4C46.0897 178.498 50.049 182.504 51.5634 185.526C53.4766 189.341 52.3668 191.584 51.6443 191.792C50.6501 192.075 49.3323 190.387 49.0549 190.052Z" fill="#00ADB5"/>
<path d="M62.9615 224.12L67.2156 256.632H41.3212C41.8529 253.742 46.6734 224.079 46.6734 224.079L62.9615 224.12Z" fill="#00ADB5"/>
<path d="M106.352 123.068C105.794 121.13 104.929 119.294 103.791 117.629C102.61 115.982 101.234 114.484 99.6934 113.167C93.5493 107.82 85.0816 105.751 77.0763 106.3C73.4191 106.521 69.8337 107.412 66.4989 108.93C64.8738 109.688 63.367 110.677 62.0252 111.866C60.7825 112.97 59.3837 114.328 58.8057 115.912C58.7872 115.969 58.7877 116.031 58.807 116.087C58.8264 116.144 58.8635 116.193 58.913 116.227C58.9624 116.26 59.0214 116.277 59.0813 116.275C59.1411 116.272 59.1986 116.251 59.245 116.213C59.979 115.635 60.5975 114.906 61.2969 114.271C62.0024 113.64 62.7518 113.061 63.5395 112.537C65.0868 111.518 66.7328 110.659 68.4525 109.97C75.3249 107.196 83.4805 107.265 90.4165 109.774C93.78 111.002 96.885 112.846 99.572 115.213C100.838 116.332 101.999 117.564 103.04 118.895C104.156 120.246 105.185 121.667 106.121 123.149C106.225 123.23 106.404 123.195 106.352 123.068Z" fill="#263238"/>
<path d="M101.283 112.132C100.588 111.023 99.7154 110.037 98.6992 109.213C97.635 108.431 96.5101 107.735 95.3353 107.132C91.0329 104.811 86.3226 103.343 81.4633 102.809C79.1188 102.551 76.7482 102.668 74.4406 103.156C73.347 103.4 72.2682 103.707 71.2095 104.075C70.1314 104.393 69.1067 104.87 68.1693 105.491C68.1473 105.512 68.1323 105.539 68.1267 105.569C68.121 105.598 68.1248 105.629 68.1376 105.657C68.1503 105.684 68.1714 105.707 68.1979 105.722C68.2243 105.737 68.2547 105.743 68.2849 105.739C69.5218 105.485 70.7067 105.028 71.9494 104.791C73.1921 104.554 74.3539 104.508 75.5677 104.393C89.7691 103.075 100.04 111.855 101.046 112.381C101.08 112.405 101.122 112.416 101.163 112.412C101.205 112.408 101.244 112.389 101.272 112.359C101.301 112.329 101.318 112.289 101.32 112.248C101.322 112.206 101.309 112.165 101.283 112.132Z" fill="#263238"/>
<path d="M52.1471 157.083C55.0371 158.95 58.4589 157.586 60.7246 155.395C63.0829 153.118 64.6897 150.135 65.9266 147.136C67.0826 144.396 67.8976 141.535 68.8166 138.708C69.7357 135.882 70.5506 132.928 72.0072 130.345C73.3702 127.874 75.6561 126.043 78.3652 125.253C81.3004 124.463 84.421 124.743 87.1681 126.044C88.6231 126.686 89.9431 127.598 91.0581 128.732C92.0791 129.842 92.8743 131.139 93.399 132.553C94.6186 135.605 95.2312 138.853 95.9711 142.038C96.578 144.673 97.838 147.049 100.306 148.349C102.41 149.459 104.999 149.794 107.138 148.598C107.17 148.583 107.195 148.556 107.209 148.524C107.223 148.491 107.224 148.455 107.212 148.421C107.201 148.388 107.178 148.36 107.147 148.342C107.116 148.325 107.08 148.319 107.046 148.326C105.699 148.588 104.309 148.536 102.986 148.173C101.663 147.81 100.441 147.147 99.416 146.234C98.3596 145.165 97.6281 143.818 97.3063 142.35C96.8439 140.616 96.4971 138.83 96.0231 137.084C95.237 134.194 94.4567 131.033 92.5551 128.628C90.6183 126.299 88.0074 124.627 85.0816 123.842C82.2649 123.023 79.2568 123.153 76.5214 124.212C73.8016 125.337 71.5832 127.412 70.279 130.05C67.5508 135.252 66.6723 141.182 64.5683 146.627C63.6002 149.33 62.1555 151.838 60.3027 154.031C58.378 156.181 55.2857 157.777 52.4072 156.58C52.3409 156.549 52.2648 156.544 52.1951 156.567C52.1254 156.591 52.0675 156.64 52.0337 156.706C52 156.771 51.9929 156.847 52.0141 156.917C52.0352 156.988 52.0829 157.047 52.1471 157.083Z" fill="#263238"/>
<path d="M51.5171 147.968C52.8465 148.147 54.0661 147.147 54.6845 146.049C55.5253 144.469 56.1697 142.792 56.6035 141.055C57.5192 137.463 58.6779 133.936 60.0715 130.501C62.3835 125.12 65.9844 119.929 71.1691 116.947C73.7381 115.451 76.6031 114.534 79.5634 114.262C82.5237 113.989 85.5078 114.367 88.3068 115.369C90.9719 116.341 93.4078 117.852 95.4624 119.808C97.5768 121.888 99.279 124.349 100.479 127.062C101.679 129.873 102.665 132.772 103.427 135.732C103.768 136.917 104.248 138.356 105.392 138.997C105.819 139.265 106.327 139.372 106.826 139.3C107.324 139.228 107.781 138.982 108.115 138.604C108.178 138.529 108.074 138.448 108.005 138.495C107.681 138.71 107.294 138.81 106.906 138.778C106.518 138.747 106.152 138.586 105.866 138.321C105.249 137.797 104.839 137.069 104.71 136.269C104.323 134.674 104.011 133.067 103.554 131.478C102.7 128.248 101.353 125.17 99.5605 122.351C97.9456 119.933 95.8683 117.858 93.4483 116.246C91.0282 114.633 88.3132 113.516 85.4595 112.957C82.6058 112.398 79.6698 112.41 76.8204 112.99C73.9711 113.571 71.2647 114.709 68.8571 116.34C63.8632 119.727 60.4819 124.946 58.245 130.455C57.0889 133.474 56.1237 136.562 55.355 139.703C54.9736 141.29 54.5027 142.855 53.9447 144.39C53.6835 145.063 53.3745 145.716 53.0199 146.344C52.8922 146.633 52.69 146.882 52.4341 147.067C52.1781 147.252 51.8776 147.365 51.5633 147.396C51.4875 147.39 51.4122 147.414 51.3543 147.463C51.2963 147.513 51.2602 147.583 51.2541 147.659C51.248 147.735 51.2722 147.81 51.3216 147.868C51.3709 147.926 51.4412 147.962 51.5171 147.968Z" fill="#263238"/>
<path d="M53.1297 159.58C53.1211 159.644 53.1372 159.709 53.1748 159.762C53.2124 159.814 53.2686 159.851 53.332 159.863C53.8012 159.975 54.2786 160.048 54.7597 160.083C54.9753 160.094 55.1914 160.094 55.407 160.083C57.956 159.956 60.609 158.511 63.2794 155.788C65.5367 153.485 67.3961 150.823 68.7819 147.91C69.8747 145.415 70.715 142.816 71.2905 140.153C71.4754 139.408 71.6662 138.656 71.8685 137.917C72.4985 135.547 73.6429 132.137 76.2266 129.986C77.0986 129.26 78.1225 128.738 79.2229 128.46C80.3233 128.182 81.4721 128.155 82.5846 128.38C84.3117 128.73 85.9484 129.431 87.3931 130.441C88.8378 131.45 90.0597 132.745 90.9829 134.246C92.4309 136.66 92.9527 139.517 92.451 142.286C91.8368 145.279 90.3834 148.036 88.2605 150.234C86.05 152.509 83.4302 154.346 80.5385 155.65C79.3131 156.228 77.6889 156.996 76.0243 157.609L75.0706 157.962C73.8568 158.407 72.6083 158.858 71.4118 159.384C71.3343 159.421 71.2729 159.485 71.2388 159.564C71.2047 159.643 71.2003 159.732 71.2262 159.814C71.2522 159.896 71.3069 159.966 71.3802 160.011C71.4536 160.056 71.5407 160.074 71.6257 160.06C72.4638 159.881 73.2903 159.649 74.0591 159.424C79.6368 157.823 86.5843 155.233 90.8211 149.39C92.7358 146.858 93.8472 143.809 94.0116 140.639C94.0872 137.73 93.1834 134.88 91.4453 132.547C89.2582 129.541 85.9832 127.508 82.3187 126.883C81.1128 126.684 79.8789 126.736 78.6937 127.034C77.5085 127.332 76.3973 127.871 75.4289 128.617C73.2903 130.275 71.7182 132.917 70.6258 136.709C70.3252 137.737 70.0478 138.789 69.7992 139.807C69.2478 142.268 68.474 144.675 67.4872 146.997C66.091 150.025 64.1627 152.777 61.7939 155.124C59.8576 157.031 56.8405 159.303 53.4476 159.308C53.3697 159.304 53.293 159.329 53.2337 159.38C53.1743 159.431 53.1371 159.502 53.1297 159.58Z" fill="#263238"/>
<path d="M52.02 151.303C52.7412 151.466 53.4907 151.456 54.2076 151.276C54.9246 151.095 55.5889 150.748 56.1469 150.263C57.4127 149.251 58.0658 147.569 58.586 146.078C59.7941 142.61 60.7304 139.026 61.9327 135.541C63.7996 130.108 66.5567 124.559 71.4523 121.288C73.6539 119.84 76.1393 118.88 78.742 118.472C81.3447 118.063 84.0047 118.215 86.5439 118.918C89.3545 119.713 91.9024 121.243 93.9249 123.351C95.7797 125.407 97.25 127.78 98.2657 130.356C98.8033 131.651 99.2657 132.969 99.676 134.31C100.051 135.729 100.499 137.127 101.017 138.5C101.965 140.778 104.352 143.512 107.103 142.385C107.148 142.363 107.184 142.327 107.207 142.283C107.229 142.239 107.236 142.188 107.227 142.14C107.218 142.091 107.193 142.047 107.156 142.014C107.119 141.981 107.072 141.961 107.022 141.957C106.256 141.885 105.514 141.649 104.849 141.262C104.183 140.876 103.609 140.35 103.167 139.72C102.19 138.344 101.815 136.645 101.37 135.044C100.591 132.053 99.4414 129.172 97.9478 126.466C96.6164 124.073 94.8039 121.981 92.6245 120.322C90.2652 118.617 87.543 117.481 84.6712 117.005C82.0431 116.575 79.3557 116.676 76.767 117.3C74.1783 117.925 71.7405 119.06 69.5969 120.64C64.84 124.195 62.1292 129.767 60.2738 135.264C59.2276 138.35 58.4184 141.5 57.4589 144.61C56.7307 146.98 55.4417 150.968 52.2049 150.442C52.0982 150.435 51.9925 150.466 51.9071 150.531C51.8217 150.595 51.7624 150.688 51.7399 150.792C51.7174 150.897 51.7334 151.006 51.7848 151.1C51.8362 151.194 51.9197 151.266 52.02 151.303Z" fill="#263238"/>
<path d="M51.783 153.569C52.1632 153.997 52.6224 154.349 53.1355 154.603C54.199 155.135 55.7538 154.962 56.8174 154.534C58.1243 153.936 59.2217 152.96 59.9675 151.731C60.7826 150.417 61.4716 149.03 62.0251 147.587C62.6898 145.985 63.2678 144.338 63.8343 142.697C64.9903 139.396 66.0249 136.067 67.3023 132.807C68.412 129.917 69.7935 127.16 72.117 125.056C74.1857 123.158 76.754 121.891 79.5191 121.405C82.2842 120.918 85.1307 121.232 87.723 122.311C90.3822 123.428 92.6438 125.319 94.214 127.738C95.948 130.379 96.734 133.46 97.497 136.472C98.179 139.154 98.7281 142.049 100.445 144.298C101.872 146.176 104.913 147.662 106.918 145.708C106.94 145.69 106.953 145.664 106.957 145.636C106.961 145.608 106.954 145.58 106.939 145.557C106.923 145.534 106.899 145.517 106.872 145.509C106.845 145.502 106.816 145.505 106.791 145.517C105.358 146.228 103.676 145.743 102.479 144.772C101.377 143.806 100.552 142.566 100.086 141.177C98.9015 138.107 98.4334 134.819 97.3467 131.692C96.4574 128.919 94.906 126.406 92.8268 124.368C90.8305 122.461 88.3975 121.072 85.7405 120.322C83.0441 119.623 80.2127 119.634 77.5216 120.353C74.8305 121.072 72.3713 122.475 70.383 124.426C68.1808 126.64 66.7994 129.432 65.6839 132.316C64.4701 135.477 63.4875 138.726 62.3893 141.934C61.8113 143.575 61.2333 145.205 60.5917 146.829C60.1038 148.228 59.4946 149.582 58.771 150.875C58.1041 152.08 57.0604 153.032 55.8001 153.586C55.213 153.846 54.5674 153.945 53.9296 153.873C53.2917 153.801 52.6845 153.56 52.1702 153.176C51.9044 152.973 51.5865 153.349 51.783 153.569Z" fill="#263238"/>
<path d="M107.6 136.888C107.644 136.137 107.644 135.384 107.6 134.634C107 128.437 104.356 122.616 100.086 118.085C96.1315 113.8 90.8625 110.953 85.1105 109.993C79.4585 109.131 73.6781 110.019 68.545 112.537C63.4373 115.058 59.2326 119.096 56.5053 124.097C53.7001 129.027 52.4339 134.683 52.8697 140.338C52.8697 140.46 53.0662 140.437 53.072 140.338C53.438 134.235 55.4187 128.339 58.8115 123.253C61.8294 118.814 66.0755 115.351 71.0304 113.288C75.9747 111.26 81.4237 110.804 86.6364 111.982C92.0057 113.315 96.7882 116.375 100.248 120.692C102.075 122.981 103.548 125.532 104.618 128.258C105.675 131.079 106.512 133.978 107.121 136.928C107.207 137.148 107.583 137.148 107.6 136.888Z" fill="#263238"/>
<path d="M98.7744 157.736C99.4102 156.8 100.774 157.626 101.479 158.019C102.537 158.597 103.676 159.389 104.947 159.175C104.968 159.169 104.991 159.17 105.01 159.18C105.03 159.19 105.045 159.207 105.051 159.227C105.058 159.248 105.057 159.271 105.047 159.29C105.037 159.31 105.02 159.325 104.999 159.331C104.587 159.535 104.134 159.644 103.674 159.65C103.214 159.656 102.758 159.559 102.341 159.366C101.891 159.182 101.451 158.973 101.023 158.742C100.618 158.508 100.185 158.325 99.7339 158.199C99.6514 158.187 99.5678 158.187 99.4853 158.199C99.3986 158.199 99.4218 158.199 99.4102 158.227C99.3293 158.378 99.4564 158.696 99.5027 158.846C99.6097 159.237 99.7589 159.615 99.9477 159.973C100.349 160.711 100.857 161.384 101.456 161.973C101.793 162.317 102.15 162.642 102.526 162.944C102.907 163.25 103.358 163.482 103.722 163.805C103.752 163.821 103.774 163.849 103.784 163.881C103.794 163.914 103.79 163.949 103.774 163.979C103.758 164.008 103.731 164.031 103.698 164.041C103.666 164.05 103.631 164.047 103.601 164.031C103.161 163.894 102.741 163.7 102.352 163.453C101.946 163.214 101.559 162.944 101.196 162.643C100.463 162.04 99.8458 161.307 99.3755 160.482C99.1394 160.071 98.9457 159.637 98.7975 159.187C98.6801 158.964 98.6169 158.716 98.6129 158.464C98.6089 158.212 98.6642 157.963 98.7744 157.736Z" fill="#263238"/>
<path d="M100.711 159.528C101.4 159.844 102.044 160.252 102.624 160.742C102.882 160.958 103.148 161.16 103.422 161.349C103.554 161.441 103.699 161.528 103.838 161.609C103.98 161.682 104.127 161.745 104.277 161.8C104.306 161.808 104.331 161.826 104.349 161.85C104.366 161.874 104.376 161.903 104.376 161.932C104.376 161.962 104.366 161.991 104.349 162.015C104.331 162.039 104.306 162.057 104.277 162.065C103.589 162.233 102.867 161.782 102.346 161.389C101.69 160.913 101.106 160.345 100.612 159.701C100.532 159.644 100.601 159.528 100.711 159.528Z" fill="#263238"/>
<path d="M55.5284 161.649C55.5256 161.663 55.5256 161.676 55.5284 161.69C55.5324 161.737 55.5514 161.781 55.5826 161.817C55.6138 161.852 55.6556 161.876 55.7018 161.886C55.8722 161.93 56.0464 161.957 56.222 161.967C56.833 161.977 57.4422 161.899 58.0312 161.736C58.8557 161.54 59.6577 161.26 60.4241 160.898C61.9222 160.173 63.3082 159.237 64.5394 158.118C68.7299 154.453 71.6777 149.234 73.3019 142.593C73.406 142.153 73.5158 141.708 73.6198 141.269C74.1978 138.87 74.7758 136.396 76.1052 134.333C76.8042 133.242 77.7559 132.336 78.8796 131.692C80.0502 131.104 81.3513 130.826 82.6597 130.882C82.7271 130.879 82.7916 130.854 82.8432 130.811C82.8948 130.767 82.9306 130.708 82.9451 130.642C82.9596 130.576 82.9519 130.507 82.9233 130.446C82.8947 130.385 82.8468 130.335 82.7869 130.304C81.2899 129.57 79.4287 130.264 78.7004 130.593C77.409 131.206 76.2774 132.111 75.3943 133.235C73.6603 135.379 73.0129 138.13 72.3887 140.789L72.2268 141.454C71.56 144.458 70.5293 147.369 69.1577 150.124C67.7475 152.828 65.8575 155.252 63.58 157.28C62.4774 158.291 61.2498 159.158 59.927 159.857C59.2476 160.199 58.5445 160.49 57.8231 160.73C57.5803 160.811 57.3318 160.875 57.0832 160.944C56.5947 161.058 56.12 161.225 55.6671 161.441C55.6273 161.46 55.5934 161.489 55.5689 161.526C55.5445 161.563 55.5305 161.605 55.5284 161.649Z" fill="#263238"/>
<path d="M70.0304 158.372C70.0271 158.417 70.0361 158.461 70.0565 158.501C70.0769 158.541 70.1079 158.574 70.146 158.597C70.1798 158.622 70.22 158.636 70.2616 158.638C70.3037 158.64 70.3456 158.631 70.3831 158.611C70.4206 158.592 70.4524 158.563 70.4755 158.528C70.9822 157.903 71.6496 157.427 72.406 157.152C73.088 156.835 73.799 156.574 74.4868 156.291L74.7989 156.164C76.689 155.424 78.2265 154.765 79.6368 154.089C85.8907 151.089 89.6188 147.205 90.7344 142.529C91.3678 140.035 91.0548 137.395 89.8558 135.119C89.3116 134.036 88.5473 133.078 87.6117 132.306C86.6762 131.535 85.59 130.967 84.4226 130.64C84.3536 130.622 84.2805 130.629 84.2167 130.661C84.1529 130.693 84.1029 130.747 84.0758 130.813C84.0483 130.873 84.0444 130.942 84.0647 131.005C84.085 131.068 84.1281 131.121 84.1856 131.154C86.4257 132.451 88.1766 134.45 89.168 136.842C90.4338 140.194 89.8211 145.673 83.914 150.107C81.7052 151.667 79.3258 152.97 76.8219 153.991C75.5734 154.54 74.1631 155.147 72.8106 155.881C72.2505 156.162 71.7166 156.493 71.2153 156.869C70.7544 157.259 70.3635 157.724 70.0593 158.245C70.0363 158.283 70.0262 158.328 70.0304 158.372Z" fill="#263238"/>
<path d="M53.6788 162.823C54.5283 163.333 55.492 163.623 56.4821 163.666C58.2949 163.694 60.0849 163.26 61.6841 162.406C64.0631 161.149 66.2205 159.511 68.071 157.557C68.2502 157.372 68.4178 157.181 68.5912 156.979L68.7473 156.811C68.7887 156.792 68.826 156.764 68.8571 156.73C70.3194 155.274 72.3251 154.465 74.2498 153.679C74.9203 153.407 75.6197 153.101 76.2728 152.823C79.5039 151.32 81.706 149.829 83.4053 147.98C85.1285 146.194 86.2153 143.89 86.4976 141.425C86.6999 139.286 86.1971 136.304 84.1336 134.917C82.0702 133.53 79.4576 134.518 77.9259 136.188C76.1457 138.136 75.2382 140.887 74.5041 143.124L74.2498 143.905C73.5822 146.14 72.7276 148.315 71.6951 150.407C70.5535 152.569 69.1244 154.565 67.4468 156.343C65.7781 158.111 63.8763 159.643 61.7939 160.898C59.0542 162.534 56.3838 163.031 53.8695 162.395H53.8233C53.771 162.393 53.7193 162.407 53.6749 162.435C53.6306 162.462 53.5957 162.503 53.5748 162.551C53.5584 162.601 53.5598 162.656 53.5787 162.705C53.5976 162.755 53.633 162.796 53.6788 162.823ZM71.1922 153.748C71.6084 153.17 71.9725 152.592 72.2962 152.014C73.503 149.87 74.472 147.6 75.1862 145.246C75.3076 144.87 75.4232 144.494 75.5503 144.09C76.215 141.986 76.9028 139.807 78.1224 137.969C78.7061 136.987 79.5808 136.211 80.6252 135.749C81.1011 135.562 81.6112 135.477 82.1222 135.501C82.7324 135.523 83.3144 135.763 83.7637 136.177C85.4977 137.795 85.6075 140.76 84.9197 142.98C84.1365 145.209 82.7055 147.153 80.8101 148.563C78.6657 150.268 76.1283 151.407 73.8741 152.413L73.6603 152.505C72.8568 152.927 71.9956 153.315 71.1922 153.748Z" fill="#263238"/>
<path d="M74.955 149.899C74.9412 149.95 74.9425 150.004 74.959 150.054C74.9754 150.104 75.0062 150.149 75.0475 150.182C75.09 150.217 75.1427 150.237 75.1978 150.24C75.2345 150.242 75.2713 150.236 75.3054 150.222C75.3394 150.208 75.3698 150.186 75.3943 150.159C75.5215 150.031 76.4578 149.361 76.9087 149.055C77.0532 148.956 77.2034 148.864 77.3479 148.76C77.6543 148.558 77.9722 148.349 78.2727 148.118C79.174 147.436 80.0205 146.684 80.8044 145.87C82.3187 144.28 83.0297 142.691 82.9025 141.136C82.9004 140.752 82.791 140.377 82.5867 140.052C82.3824 139.727 82.0914 139.466 81.7465 139.298C81.3268 139.157 80.8733 139.154 80.4515 139.288C80.0296 139.422 79.6613 139.687 79.3998 140.044C78.874 140.744 78.4642 141.525 78.186 142.356C77.9202 143.026 77.6832 143.725 77.4462 144.396L77.2555 144.939C76.6053 146.557 75.8464 148.129 74.9839 149.644C74.9565 149.68 74.9393 149.723 74.9342 149.767C74.9291 149.812 74.9363 149.857 74.955 149.899ZM77.9086 145.899C78.4541 144.474 79.0952 143.087 79.8276 141.749L79.8622 141.691C80.0588 141.344 80.5269 140.535 80.9778 140.442H81.076C81.1712 140.45 81.2617 140.487 81.3361 140.546C81.7292 140.853 81.6714 141.702 81.4864 142.344C81.0587 143.882 79.7524 145.124 78.7351 146.124L77.9259 146.899C77.6485 147.159 77.3768 147.425 77.1052 147.691C77.452 147.049 77.7005 146.419 77.9086 145.899Z" fill="#263238"/>
<path d="M78.608 175.978C77.6095 177.961 76.7144 179.994 75.9261 182.07C75.9241 182.083 75.9265 182.097 75.933 182.109C75.9394 182.121 75.9495 182.131 75.9618 182.137C75.9741 182.142 75.9879 182.144 76.0012 182.141C76.0146 182.139 76.0267 182.132 76.0359 182.122C77.163 180.446 78.0993 178.654 79.1571 176.92C79.8507 175.804 81.1049 173.198 82.7985 173.62C83.5094 173.793 84.0181 174.579 84.4111 175.14C84.9264 175.915 85.4861 176.66 86.0873 177.371C87.0121 178.423 88.7461 179.798 90.2605 179.429C90.3298 179.429 90.3703 179.301 90.3009 179.267C89.8963 179.053 89.4686 178.92 89.0698 178.689C88.6302 178.441 88.2225 178.14 87.856 177.793C87.1487 177.071 86.5244 176.272 85.9948 175.411C85.1278 174.07 84.1163 172.302 82.232 172.521C80.4865 172.724 79.2958 174.556 78.608 175.978Z" fill="#263238"/>
<path d="M53.5979 164.32C55.4301 166.73 58.7074 166.302 61.0772 165.019C62.4428 164.225 63.7316 163.306 64.9267 162.273C66.1909 161.207 67.5446 160.252 68.9727 159.418C68.9903 159.413 69.0051 159.401 69.0138 159.384C69.0224 159.368 69.0243 159.349 69.0189 159.331C69.0136 159.314 69.0014 159.299 68.9852 159.29C68.9689 159.282 68.9499 159.28 68.9322 159.285C66.0018 159.753 63.8863 162.175 61.4991 163.701C59.2565 165.146 56.0024 166.013 53.6904 164.187C53.6326 164.117 53.5401 164.244 53.5979 164.32Z" fill="#263238"/>
<path d="M101.318 168.886C101.503 168.886 101.578 168.608 101.387 168.562C98.4276 167.828 96.0925 165.609 94.659 162.967C93.3625 160.559 92.6145 157.895 92.4684 155.164C92.3347 153.11 92.6381 151.052 93.3585 149.124C93.5488 148.481 93.8806 147.888 94.3295 147.39C94.4313 147.261 94.5594 147.155 94.7053 147.08C94.8512 147.004 95.0115 146.96 95.1756 146.952C95.3397 146.943 95.5038 146.969 95.6569 147.029C95.81 147.088 95.9486 147.18 96.0635 147.298C96.3798 147.737 96.6637 148.199 96.9132 148.679C97.5936 149.699 98.4993 150.55 99.5604 151.164C100.616 151.778 101.808 152.122 103.028 152.164C104.325 152.198 105.604 151.867 106.722 151.211C106.797 151.164 106.762 151.02 106.67 151.049C105.129 151.519 103.484 151.523 101.941 151.06C100.398 150.597 99.027 149.688 97.9998 148.448C97.2947 147.54 96.9132 146.136 95.5665 146.032C94.2197 145.928 93.2834 147.003 92.7516 148.118C91.5678 150.792 91.1785 153.749 91.6303 156.638C92.3412 161.73 95.4046 168.614 101.318 168.886Z" fill="#263238"/>
<path d="M79.9316 180.151C79.7461 180.678 79.6618 181.235 79.683 181.793C79.6873 181.809 79.6961 181.824 79.7085 181.836C79.7209 181.848 79.7364 181.856 79.7532 181.86C79.77 181.864 79.7875 181.862 79.8037 181.857C79.8199 181.851 79.8341 181.841 79.8449 181.827C80.1131 181.407 80.3176 180.949 80.4518 180.469C80.6309 179.972 80.8159 179.475 81.0298 178.989C81.2405 178.501 81.4878 178.03 81.7696 177.579C81.8623 177.381 81.9873 177.199 82.1395 177.041L82.18 177.012L82.2725 177.105C82.3593 177.188 82.4404 177.277 82.5152 177.371C83.1021 178.177 83.7351 178.949 84.4111 179.683C84.9891 180.22 85.9081 180.804 86.7231 180.619C86.7341 180.614 86.7435 180.606 86.7501 180.596C86.7567 180.586 86.7602 180.574 86.7602 180.561C86.7602 180.549 86.7567 180.537 86.7501 180.527C86.7435 180.517 86.7341 180.509 86.7231 180.504C86.2591 180.266 85.8294 179.966 85.4457 179.613C85.088 179.243 84.7649 178.841 84.4804 178.411C84.151 177.96 83.8562 177.481 83.4978 177.047C83.1395 176.614 82.7406 176.053 82.1684 176.053C81.5962 176.053 81.3245 176.567 81.0991 176.978C80.8248 177.468 80.5927 177.98 80.4055 178.51C80.2495 179.053 80.0761 179.596 79.9316 180.151Z" fill="#263238"/>
<path d="M102.699 165.77C102.721 165.777 102.745 165.776 102.767 165.767C102.788 165.758 102.805 165.741 102.816 165.72C102.826 165.7 102.829 165.676 102.823 165.653C102.818 165.631 102.805 165.611 102.786 165.597C102.075 164.997 101.418 164.338 100.821 163.626C100.252 162.884 99.7229 162.113 99.2368 161.314C98.2691 159.939 97.4404 158.472 96.763 156.933C96.4131 156.186 96.2316 155.371 96.2312 154.546C96.341 153.39 97.5028 154.234 98.0057 154.667C98.5651 155.215 99.164 155.721 99.7975 156.181C101.056 156.991 102.55 157.356 104.04 157.216C104.757 157.088 105.447 156.84 106.08 156.482C106.225 156.418 106.121 156.222 105.976 156.268C105.409 156.407 104.825 156.462 104.242 156.43C103.763 156.439 103.284 156.41 102.809 156.343C101.822 156.189 100.882 155.812 100.063 155.239C99.0807 154.54 97.2774 152.193 95.9017 153.326C94.7111 154.303 95.6301 156.574 96.1098 157.684C96.9037 159.369 97.8724 160.965 98.9998 162.447C99.9246 163.718 101.15 165.239 102.699 165.77Z" fill="#263238"/>
<path d="M57.2856 170.192C58.5453 170.443 59.8533 170.223 60.9617 169.574C61.1986 169.446 61.4183 169.302 61.6495 169.157C61.5281 169.296 61.4125 169.429 61.3027 169.568C60.5087 170.538 60.011 171.716 59.8692 172.961C59.8688 172.978 59.8738 172.994 59.8834 173.008C59.893 173.022 59.9067 173.033 59.9227 173.039C59.9387 173.045 59.9561 173.045 59.9725 173.041C59.9888 173.036 60.0032 173.026 60.0137 173.013C60.6611 172.024 61.3258 171.03 62.0656 170.123C62.8055 169.215 63.6667 168.319 64.3776 167.366C64.4052 167.323 64.4199 167.274 64.4199 167.224C64.42 167.173 64.4053 167.124 64.3777 167.081C64.3501 167.039 64.3109 167.006 64.2647 166.985C64.2185 166.965 64.1673 166.959 64.1175 166.967C62.8922 167.244 61.9732 168.123 60.8865 168.701C59.7368 169.303 58.5231 169.774 57.2682 170.105C57.222 170.105 57.222 170.181 57.2856 170.192Z" fill="#263238"/>
<path d="M70.7009 175.602C70.0436 176.826 69.4644 178.091 68.9669 179.388C68.9508 179.419 68.9479 179.456 68.9587 179.49C68.9695 179.523 68.9933 179.551 69.0247 179.567C69.0561 179.583 69.0927 179.586 69.1263 179.575C69.1599 179.565 69.1878 179.541 69.2039 179.509C70.1865 178.186 70.9783 176.718 71.8916 175.342C72.8048 173.966 73.7123 172.718 74.7064 171.464C76.2869 169.422 78.2022 167.663 80.3709 166.262C80.9267 165.907 81.5061 165.59 82.1049 165.314C82.7222 164.965 83.4135 164.766 84.1221 164.736C85.4052 164.805 86.2376 166.036 86.8098 166.99C88.1912 169.302 89.3703 171.741 91.5089 173.504C92.4455 174.32 93.576 174.881 94.792 175.134C95.3098 175.284 95.8617 175.268 96.3699 175.088C96.5259 174.99 96.6242 174.845 96.4681 174.706C96.4161 174.666 96.3352 174.706 96.3699 174.787C96.4046 174.868 95.6243 174.712 95.5896 174.7L95.0925 174.562C94.7434 174.454 94.4048 174.315 94.081 174.146C93.4633 173.823 92.882 173.436 92.347 172.99C91.2057 171.97 90.2478 170.761 89.5148 169.418C88.8501 168.29 88.2605 167.106 87.5207 166.025C86.9448 165.049 86.066 164.288 85.018 163.857C83.7001 163.429 82.365 163.903 81.1743 164.435C80.0257 164.955 78.9382 165.601 77.9317 166.36C75.8789 167.917 74.1177 169.825 72.7297 171.995C71.9909 173.161 71.3137 174.365 70.7009 175.602Z" fill="#263238"/>
<path d="M74.0128 178.18C73.6066 179.145 73.3193 180.157 73.1574 181.191C73.1559 181.208 73.1601 181.225 73.1694 181.239C73.1787 181.253 73.1924 181.264 73.2085 181.269C73.2245 181.275 73.2419 181.275 73.2578 181.269C73.2737 181.263 73.2872 181.252 73.2961 181.238C73.8741 180.232 74.2787 179.116 74.8798 178.111C75.481 177.105 76.0358 176.111 76.6138 175.146C77.6952 173.412 78.9481 171.791 80.3535 170.308C81.0182 169.631 81.7985 169.053 82.7695 169.152C83.6803 169.336 84.498 169.833 85.0815 170.556C86.3878 172.019 86.9889 174.024 88.3357 175.458C88.9325 176.112 89.6774 176.614 90.508 176.922C91.3386 177.23 92.2308 177.334 93.11 177.226C93.1678 177.226 93.1851 177.105 93.11 177.088C91.9782 176.817 90.9178 176.306 90.0003 175.591C89.106 174.823 88.3698 173.888 87.8328 172.839C86.8387 171.105 85.8734 169.221 83.9949 168.354C83.1711 167.958 82.2252 167.9 81.3592 168.192C80.4566 168.586 79.6632 169.193 79.0472 169.961C77.5789 171.553 76.3148 173.322 75.2844 175.226C74.791 176.18 74.366 177.167 74.0128 178.18Z" fill="#263238"/>
<path d="M65.6492 177.203C65.6353 177.249 65.6388 177.299 65.6591 177.343C65.6793 177.386 65.7149 177.421 65.7591 177.44H65.8342C65.8671 177.44 65.8995 177.433 65.9287 177.418C65.9579 177.403 65.983 177.381 66.0018 177.354C66.8763 175.986 67.8236 174.666 68.8398 173.4C69.9075 172.101 71.048 170.864 72.2558 169.695C74.2571 167.651 76.3948 165.745 78.6542 163.99C79.7691 163.141 80.9796 162.425 82.261 161.857C83.4805 161.326 85.151 160.603 86.307 161.632C86.978 162.328 87.5097 163.146 87.8733 164.042C88.0352 164.377 88.197 164.701 88.3646 165.007C89.0672 166.313 89.8937 167.548 90.8327 168.695C91.7444 169.814 92.8364 170.773 94.0637 171.533C95.2373 172.272 96.5757 172.709 97.9594 172.805C98.0068 172.81 98.0542 172.796 98.0919 172.767C98.1295 172.738 98.1546 172.696 98.1617 172.649C98.1743 172.603 98.1686 172.555 98.1459 172.514C98.1232 172.473 98.0853 172.442 98.0404 172.429C94.1967 171.082 91.7286 168.14 90.3414 165.909C89.9541 165.285 89.6016 164.609 89.2721 163.961C88.9426 163.314 88.6016 162.661 88.2086 162.037C87.3705 160.678 86.2954 159.985 85.0354 159.944C83.521 159.904 81.9488 160.563 80.7524 161.129C79.4377 161.764 78.1955 162.539 77.0474 163.441C74.7251 165.33 72.5584 167.402 70.568 169.637C68.5046 171.863 66.47 174.325 65.6492 177.203Z" fill="#263238"/>
<path d="M101.728 167.672C101.919 167.765 102.034 167.481 101.89 167.366C99.9541 165.893 98.2847 164.101 96.9537 162.065C95.8636 160.292 95.1111 158.333 94.7342 156.285C94.5345 155.237 94.4319 154.173 94.4278 153.106C94.4278 152.326 94.2255 150.355 95.37 150.349C96.5144 150.344 97.1444 151.719 97.8091 152.378C98.5684 153.149 99.464 153.772 100.451 154.216C101.429 154.675 102.518 154.843 103.589 154.703C104.66 154.563 105.669 154.119 106.496 153.424C106.51 153.413 106.518 153.398 106.521 153.381C106.524 153.364 106.52 153.347 106.511 153.333C106.501 153.319 106.487 153.308 106.471 153.304C106.454 153.299 106.437 153.301 106.421 153.309C103.878 154.725 100.543 153.621 98.5779 151.725C97.7802 150.962 97.1329 149.858 96 149.552C95.7709 149.462 95.5254 149.423 95.2797 149.435C95.0341 149.448 94.794 149.513 94.5753 149.625C94.3566 149.738 94.1644 149.896 94.0115 150.088C93.8585 150.281 93.7482 150.504 93.688 150.742C93.4577 151.807 93.3915 152.9 93.4915 153.985C93.544 155.084 93.7106 156.175 93.9885 157.239C95.1272 161.47 97.7513 165.661 101.728 167.672Z" fill="#263238"/>
<path d="M64.0192 173.094C63.5569 173.892 63.2124 174.752 62.9962 175.648C62.9736 175.755 62.9883 175.866 63.0377 175.962C63.0872 176.059 63.1684 176.136 63.2678 176.18C63.3109 176.195 63.3555 176.204 63.4008 176.209C63.4721 176.212 63.543 176.196 63.606 176.163C63.6691 176.129 63.7219 176.079 63.7591 176.018C64.1002 175.492 64.4238 174.955 64.7475 174.423C65.4367 173.228 66.2093 172.082 67.0595 170.996C68.3259 169.465 69.7012 168.028 71.1749 166.695C74.1521 164.208 77.2687 161.892 80.5096 159.759C85.1336 156.684 88.3068 155.06 89.0351 155.395C89.5321 155.627 89.5553 156.453 89.5784 157.129C89.5784 157.322 89.5881 157.515 89.6073 157.707C89.7258 158.654 89.8956 159.594 90.1159 160.522C90.5037 162.301 91.173 164.006 92.0985 165.574C92.9492 167 94.1037 168.222 95.4798 169.152C96.2312 169.643 98.179 170.747 99.9708 170.406C100.018 170.388 100.058 170.356 100.087 170.316C100.116 170.275 100.133 170.227 100.136 170.176C100.138 170.126 100.126 170.077 100.101 170.033C100.076 169.99 100.039 169.955 99.9939 169.932C99.6992 169.816 99.416 169.712 99.1212 169.608C98.5014 169.398 97.8969 169.145 97.312 168.851C96.4674 168.395 95.6895 167.825 95 167.158C93.5985 165.746 92.5439 164.029 91.9193 162.141C91.337 160.3 90.9495 158.403 90.7633 156.482C90.7583 156.072 90.6605 155.669 90.4773 155.303C90.2941 154.936 90.0302 154.616 89.7055 154.366C89.0235 153.921 87.8502 154.228 87.2722 154.476C83.9545 155.898 73.2961 162.707 69.0478 166.649C67.7263 167.905 66.5353 169.292 65.4931 170.787C64.9596 171.528 64.4675 172.298 64.0192 173.094Z" fill="#263238"/>
<path d="M55.5805 167.655C57.8058 168.62 60.4414 167.655 62.4702 166.649C64.499 165.643 66.1694 164.285 68.071 163.181C68.5623 162.904 69.0536 162.643 69.5623 162.406C69.8166 162.291 70.0767 162.181 70.3368 162.083C70.4698 162.031 70.6258 161.932 70.7645 161.979C70.9032 162.025 70.9321 161.979 70.8223 162.089C70.7125 162.198 70.753 162.187 70.7125 162.233C70.0536 163.054 69.019 163.643 68.2271 164.325C66.6075 165.694 65.1352 167.228 63.8343 168.903C62.6089 170.493 61.3316 172.319 60.9443 174.325C60.9443 174.423 61.0599 174.458 61.1119 174.388C61.8922 173.325 62.5454 172.169 63.3199 171.1C64.0805 170.057 64.9211 169.075 65.8342 168.163C66.6492 167.343 67.4988 166.551 68.36 165.782C69.2213 165.013 70.1287 164.354 70.9032 163.539C71.4408 162.961 72.4003 161.805 71.3483 161.227C70.4986 160.765 69.2386 161.557 68.4872 161.932C66.3602 162.996 64.4412 164.435 62.372 165.58C61.3072 166.18 60.1764 166.655 59.0022 166.996C57.8825 167.282 56.7355 167.449 55.5805 167.493C55.488 167.499 55.488 167.62 55.5805 167.655Z" fill="#263238"/>
<path d="M82.1222 178.926C82.1212 178.904 82.1212 178.883 82.1222 178.862C82.1292 178.842 82.1407 178.824 82.1558 178.809C82.1709 178.794 82.1891 178.783 82.2092 178.776C82.2293 178.77 82.2507 178.768 82.2716 178.771C82.2926 178.773 82.3127 178.781 82.3303 178.793L82.3765 178.822C82.5788 178.897 82.7117 179.192 82.7869 179.365C82.862 179.538 82.9776 179.798 83.0759 180.007C83.2666 180.423 83.4342 180.85 83.6539 181.261C83.6657 181.279 83.6705 181.3 83.6674 181.321C83.6642 181.343 83.6533 181.362 83.6368 181.376C83.6203 181.389 83.5993 181.396 83.5779 181.395C83.5565 181.394 83.5362 181.386 83.5209 181.371C83.1113 181.092 82.7615 180.734 82.4921 180.319C82.3713 180.116 82.265 179.906 82.1742 179.689C82.1174 179.552 82.0805 179.408 82.0644 179.261C82.0473 179.146 82.0675 179.028 82.1222 178.926Z" fill="#263238"/>
<path d="M36.8475 116.571H35.1135V96.3064H55.3781V98.0404H36.8475V116.571Z" fill="#00ADB5"/>
<path d="M124.206 185.394H103.942V183.66H122.472V165.129H124.206V185.394Z" fill="#00ADB5"/>
<path d="M55.3781 185.394H35.1135V165.129H36.8475V183.66H55.3781V185.394Z" fill="#00ADB5"/>
<path d="M124.206 116.571H122.472V98.0404H103.942V96.3064H124.206V116.571Z" fill="#00ADB5"/>
<path d="M128.669 189.861H127.299V189.428H128.235V188.492H128.669V189.861Z" fill="#00ADB5"/>
<path d="M124.975 189.861H122.663V189.428H124.975V189.861ZM120.351 189.861H118.039V189.428H120.351V189.861ZM115.727 189.861H113.415V189.428H115.727V189.861ZM111.103 189.861H108.791V189.428H111.103V189.861ZM106.479 189.861H104.167V189.428H106.479V189.861ZM101.855 189.861H99.5431V189.428H101.855V189.861ZM97.2311 189.861H94.9191V189.428H97.2311V189.861ZM92.6071 189.861H90.2951V189.428H92.6071V189.861ZM87.9831 189.861H85.6711V189.428H87.9831V189.861ZM83.3591 189.861H81.0471V189.428H83.3591V189.861ZM78.7351 189.861H76.4231V189.428H78.7351V189.861ZM74.1111 189.861H71.7991V189.428H74.1111V189.861ZM69.4871 189.861H67.1751V189.428H69.4871V189.861ZM64.8631 189.861H62.5511V189.428H64.8631V189.861ZM60.2391 189.861H57.9271V189.428H60.2391V189.861ZM55.6151 189.861H53.3031V189.428H55.6151V189.861ZM50.9911 189.861H48.6791V189.428H50.9911V189.861ZM46.3671 189.861H44.0551V189.428H46.3671V189.861ZM41.7431 189.861H39.4311V189.428H41.7431V189.861ZM37.1191 189.861H34.8071V189.428H37.1191V189.861Z" fill="#00ADB5"/>
<path d="M32.0212 189.861H30.6513V188.492H31.0848V189.428H32.0212V189.861Z" fill="#00ADB5"/>
<path d="M31.0848 186.162H30.634V183.85H31.0675L31.0848 186.162ZM31.0848 181.538H30.634V179.226H31.0675L31.0848 181.538ZM31.0848 176.914H30.634V174.602H31.0675L31.0848 176.914ZM31.0848 172.29H30.634V169.978H31.0675L31.0848 172.29ZM31.0848 167.666H30.634V165.354H31.0675L31.0848 167.666ZM31.0848 163.042H30.634V160.73H31.0675L31.0848 163.042ZM31.0848 158.418H30.634V156.106H31.0675L31.0848 158.418ZM31.0848 153.794H30.634V151.482H31.0675L31.0848 153.794ZM31.0848 149.17H30.634V146.858H31.0675L31.0848 149.17ZM31.0848 144.546H30.634V142.234H31.0675L31.0848 144.546ZM31.0848 139.922H30.634V137.61H31.0675L31.0848 139.922ZM31.0848 135.298H30.634V132.986H31.0675L31.0848 135.298ZM31.0848 130.674H30.634V128.362H31.0675L31.0848 130.674ZM31.0848 126.05H30.634V123.738H31.0675L31.0848 126.05ZM31.0848 121.426H30.634V119.114H31.0675L31.0848 121.426ZM31.0848 116.773H30.634V114.461H31.0675L31.0848 116.773ZM31.0848 112.149H30.634V109.837H31.0675L31.0848 112.149ZM31.0848 107.525H30.634V105.213H31.0675L31.0848 107.525ZM31.0848 102.901H30.634V100.589H31.0675L31.0848 102.901ZM31.0848 98.2773H30.634V95.9653H31.0675L31.0848 98.2773Z" fill="#00ADB5"/>
<path d="M31.0849 93.2141H30.6514V91.8442H32.0213V92.2777H31.0849V93.2141Z" fill="#00ADB5"/>
<path d="M124.975 92.2777H122.663V91.8442H124.975V92.2777ZM120.351 92.2777H118.039V91.8442H120.351V92.2777ZM115.727 92.2777H113.415V91.8442H115.727V92.2777ZM111.103 92.2777H108.791V91.8442H111.103V92.2777ZM106.479 92.2777H104.167V91.8442H106.479V92.2777ZM101.855 92.2777H99.5431V91.8442H101.855V92.2777ZM97.2311 92.2777H94.9191V91.8442H97.2311V92.2777ZM92.6071 92.2777H90.2951V91.8442H92.6071V92.2777ZM87.9831 92.2777H85.6711V91.8442H87.9831V92.2777ZM83.3591 92.2777H81.0471V91.8442H83.3591V92.2777ZM78.7351 92.2777H76.4231V91.8442H78.7351V92.2777ZM74.1111 92.2777H71.7991V91.8442H74.1111V92.2777ZM69.4871 92.2777H67.1751V91.8442H69.4871V92.2777ZM64.8631 92.2777H62.5511V91.8442H64.8631V92.2777ZM60.2391 92.2777H57.9271V91.8442H60.2391V92.2777ZM55.6151 92.2777H53.3031V91.8442H55.6151V92.2777ZM50.9911 92.2777H48.6791V91.8442H50.9911V92.2777ZM46.3671 92.2777H44.0551V91.8442H46.3671V92.2777ZM41.7431 92.2777H39.4311V91.8442H41.7431V92.2777ZM37.1191 92.2777H34.8071V91.8442H37.1191V92.2777Z" fill="#00ADB5"/>
<path d="M128.669 93.2141H128.235V92.2777H127.299V91.8442H128.669V93.2141Z" fill="#00ADB5"/>
<path d="M128.669 186.162H128.235V183.85H128.669V186.162ZM128.669 181.538H128.235V179.226H128.669V181.538ZM128.669 176.914H128.235V174.602H128.669V176.914ZM128.669 172.29H128.235V169.978H128.669V172.29ZM128.669 167.666H128.235V165.354H128.669V167.666ZM128.669 163.042H128.235V160.73H128.669V163.042ZM128.669 158.418H128.235V156.106H128.669V158.418ZM128.669 153.794H128.235V151.482H128.669V153.794ZM128.669 149.17H128.235V146.858H128.669V149.17ZM128.669 144.546H128.235V142.234H128.669V144.546ZM128.669 139.922H128.235V137.61H128.669V139.922ZM128.669 135.298H128.235V132.986H128.669V135.298ZM128.669 130.674H128.235V128.362H128.669V130.674ZM128.669 126.05H128.235V123.738H128.669V126.05ZM128.669 121.426H128.235V119.114H128.669V121.426ZM128.669 116.773H128.235V114.461H128.669V116.773ZM128.669 112.149H128.235V109.837H128.669V112.149ZM128.669 107.525H128.235V105.213H128.669V107.525ZM128.669 102.901H128.235V100.589H128.669V102.901ZM128.669 98.2773H128.235V95.9653H128.669V98.2773Z" fill="#00ADB5"/>
<path d="M156.852 256.632H210.224C210.664 254.898 211.086 253.222 211.513 251.557C211.999 249.63 212.475 247.764 212.941 245.956C213.039 245.552 213.149 245.147 213.253 244.748C213.606 243.355 213.947 241.997 214.288 240.702C214.49 239.893 214.692 239.101 214.866 238.321C215.039 237.541 215.27 236.737 215.444 235.974C215.496 235.772 215.548 235.564 215.6 235.396C215.652 235.229 215.71 234.951 215.762 234.737L215.964 233.946C216.039 233.668 216.108 233.396 216.172 233.125C216.311 232.61 216.438 232.107 216.559 231.61C216.75 230.882 216.929 230.165 217.108 229.466C217.184 229.165 217.264 228.859 217.34 228.564C217.467 228.073 217.588 227.599 217.704 227.137C217.785 226.825 217.86 226.518 217.935 226.223C218.253 224.998 218.542 223.848 218.813 222.755C218.889 222.472 218.952 222.177 219.027 221.923C219.143 221.455 219.259 221.01 219.368 220.576C219.443 220.305 219.507 220.045 219.571 219.785C219.808 218.865 220.021 218.051 220.206 217.293C220.258 217.097 220.305 216.906 220.357 216.715L220.686 215.409C220.727 215.259 220.761 215.108 220.802 214.97C220.842 214.831 220.877 214.675 220.906 214.548C220.935 214.421 220.958 214.357 220.975 214.276C220.993 214.195 221.045 214.016 221.073 213.912C221.082 213.857 221.096 213.803 221.114 213.75L221.235 213.265H169.354C169.354 213.265 167.62 219.166 164.903 228.674C164.325 230.61 163.747 232.72 163.106 234.917C161.262 241.199 159.141 248.598 156.852 256.632Z" fill="#37474F"/>
<path d="M201.485 256.632H202.814C204.791 248.455 206.706 240.265 208.56 232.061C209.007 230.065 209.448 228.067 209.883 226.067L210.005 225.489C210.008 225.469 210.004 225.449 209.993 225.432C209.982 225.415 209.965 225.403 209.945 225.398C209.926 225.393 209.905 225.395 209.887 225.405C209.869 225.414 209.855 225.43 209.849 225.449L209.797 225.634C209.196 227.776 208.598 229.925 208.005 232.079C205.768 240.228 203.595 248.413 201.485 256.632Z" fill="#263238"/>
<path d="M171.013 213.213L173.325 224.692L175.186 234.09L178.388 250.13L178.718 251.777L179.267 254.517L179.677 256.592H210.23C210.664 254.858 211.091 253.176 211.513 251.517C211.999 249.59 212.475 247.723 212.941 245.916C213.039 245.511 213.149 245.107 213.253 244.708C213.606 243.315 213.947 241.957 214.288 240.662C214.49 239.853 214.692 239.061 214.866 238.281C215.039 237.5 215.27 236.697 215.444 235.934C215.496 235.732 215.548 235.523 215.6 235.356C215.652 235.188 215.71 234.911 215.762 234.697L215.964 233.905C216.039 233.628 216.108 233.356 216.172 233.084C216.311 232.57 216.438 232.067 216.559 231.57C216.75 230.842 216.929 230.125 217.108 229.426C217.189 229.119 217.264 228.819 217.34 228.524C217.467 228.033 217.588 227.559 217.704 227.096C217.785 226.784 217.86 226.478 217.935 226.183C218.253 224.958 218.542 223.807 218.813 222.715C218.889 222.432 218.952 222.137 219.027 221.883C219.143 221.414 219.259 220.969 219.368 220.536C219.444 220.264 219.507 220.004 219.571 219.744C219.808 218.825 220.022 218.01 220.206 217.253C220.258 217.056 220.305 216.866 220.357 216.675L220.686 215.369C220.727 215.218 220.761 215.068 220.802 214.929C220.842 214.791 220.877 214.635 220.906 214.507C220.935 214.38 220.958 214.317 220.975 214.236C220.993 214.155 221.045 213.976 221.073 213.872C221.082 213.817 221.096 213.762 221.114 213.71L221.235 213.224L171.013 213.213Z" fill="#263238"/>
<path d="M171.007 213.195C171.007 213.484 171.227 216.582 171.724 221.287C171.868 222.669 172.036 224.177 172.232 225.807C172.539 228.374 172.914 231.2 173.388 234.188C174.186 239.39 175.226 245.089 176.579 250.65C177.059 252.65 177.591 254.632 178.151 256.574H245.199C244.407 246.355 243.685 237.113 243.113 229.83C242.303 219.576 241.795 213.155 241.795 213.155H180.966L171.007 213.195Z" fill="#37474F"/>
<path d="M171.152 219.357C171.227 221.755 171.325 224.154 171.481 226.541C171.643 229.131 171.88 231.714 172.221 234.298C172.227 234.393 172.239 234.488 172.256 234.581C172.575 237.001 172.938 239.415 173.342 241.824C173.729 244.066 174.013 246.488 175.007 248.569C175.384 249.371 175.916 250.09 176.573 250.684C177.179 251.235 177.918 251.618 178.718 251.794C178.848 251.827 178.982 251.848 179.116 251.858C179.151 251.858 179.192 251.858 179.232 251.858C179.207 251.87 179.186 251.891 179.173 251.915C179.159 251.94 179.154 251.968 179.157 251.996C179.186 252.8 179.157 253.621 179.255 254.418C179.255 254.453 179.255 254.488 179.255 254.522C179.336 255.216 179.463 255.904 179.59 256.597H180.746C180.746 256.597 180.746 256.597 180.746 256.557C180.544 255.8 180.376 255.037 180.168 254.245C179.96 253.453 179.706 252.707 179.527 251.933C179.518 251.901 179.497 251.874 179.469 251.858C180.2 251.894 180.925 251.706 181.545 251.317C182.165 250.928 182.651 250.358 182.937 249.684C183.228 248.657 183.248 247.572 182.995 246.534L182.371 242.413C181.978 239.893 181.475 237.396 181.024 234.899C180.96 234.518 180.891 234.136 180.822 233.743C179.926 228.639 178.984 223.53 177.856 218.472C177.816 218.264 177.764 218.056 177.718 217.842C177.671 217.629 177.463 217.744 177.475 217.877C177.51 218.218 177.544 218.559 177.585 218.9C177.781 220.842 178.012 222.773 178.278 224.68C178.602 226.946 178.827 229.223 179.145 231.489L179.475 233.801C179.995 237.529 180.538 241.257 181.174 244.968C181.475 246.702 182.55 249.783 180.064 250.32C179.496 250.446 178.901 250.371 178.382 250.106C177.287 249.455 176.466 248.428 176.07 247.216C175.365 245.24 175.117 243.066 174.753 241.009C174.34 238.739 173.978 236.464 173.666 234.182C173.261 231.339 172.845 228.495 172.394 225.657C172.175 224.206 171.943 222.767 171.712 221.31C171.608 220.646 171.498 219.975 171.389 219.305C171.371 219.172 171.152 219.212 171.152 219.357Z" fill="#263238"/>
<path d="M230.489 237.182C227.697 237.155 224.919 236.782 222.218 236.073C220.969 235.749 219.738 235.35 218.519 234.951C217.307 234.614 216.173 234.045 215.178 233.275C213.299 231.651 212.421 229.096 211.606 226.83C210.714 224.274 209.99 221.661 209.438 219.01C209.409 218.877 209.219 218.918 209.213 219.045C209.16 222.047 209.549 225.04 210.369 227.929C211.045 230.379 211.953 233.131 213.935 234.865C216.016 236.668 218.848 237.304 221.513 237.633C224.511 237.983 227.542 237.942 230.53 237.512C230.551 237.509 230.572 237.502 230.591 237.491C230.61 237.481 230.627 237.466 230.64 237.449C230.654 237.432 230.663 237.412 230.669 237.391C230.675 237.37 230.677 237.348 230.674 237.327C230.671 237.305 230.664 237.284 230.654 237.265C230.643 237.246 230.629 237.23 230.611 237.216C230.594 237.203 230.575 237.193 230.554 237.187C230.533 237.181 230.511 237.18 230.489 237.182Z" fill="#263238"/>
<path d="M235.136 219.062C235.286 222.819 235.444 226.576 235.61 230.333C235.995 239.084 236.417 247.835 236.876 256.586H238.136C237.558 247.812 236.951 239.047 236.315 230.293C236.038 226.539 235.753 222.794 235.46 219.056C235.459 219.013 235.441 218.972 235.41 218.943C235.38 218.913 235.338 218.897 235.295 218.897C235.252 218.898 235.211 218.916 235.182 218.947C235.152 218.978 235.135 219.019 235.136 219.062Z" fill="#263238"/>
<path d="M178.452 135.922C152.037 159.73 127.547 185.804 125.628 199.109C122.975 217.536 134.298 222.651 139.385 222.698C153.21 222.836 178.336 166.805 187.076 145.413C195.561 124.64 184.255 130.692 178.452 135.922Z" fill="#D3766A"/>
<path d="M138.581 174.024L167.955 189.989C167.955 189.989 186.214 156.257 190.422 140.622C194.63 124.987 188.347 125.426 174.556 137.599C160.765 149.771 138.581 174.024 138.581 174.024Z" fill="#C7C7C7"/>
<path d="M138.581 174.024L167.955 189.989C167.955 189.989 186.214 156.257 190.422 140.622C194.63 124.987 188.347 125.426 174.556 137.599C160.765 149.771 138.581 174.024 138.581 174.024Z" fill="#00ADB5"/>
<path opacity="0.1" d="M190.422 140.616C186.214 156.257 167.95 189.994 167.95 189.994L141.205 175.452L190.463 129.154C192.104 130.414 192.173 134.131 190.422 140.616Z" fill="black"/>
<path d="M144.627 169.522C155.95 177.186 166.926 182.162 169.129 183.428C169.233 183.492 169.319 183.318 169.21 183.261C166.984 182.134 154.933 174.631 144.714 169.337C144.598 169.273 144.5 169.446 144.627 169.522Z" fill="#263238"/>
<path d="M161.331 234.038L247.344 234.287C247.344 234.287 239.83 169.551 208.259 131.339C200.953 122.49 189.185 127.293 184.22 131.998C171.62 143.922 161.089 233.726 161.331 234.038Z" fill="#00ADB5"/>
<path d="M190.919 127.819C192.983 129.327 194.965 130.992 196.948 132.535L202.728 137.015C204.462 138.373 206.196 139.905 208.167 140.974C209.941 141.945 212.005 142.379 213.906 141.512C214.371 141.296 214.808 141.024 215.207 140.703L215.403 141.009C214.435 141.814 213.238 142.295 211.982 142.385C210.08 142.494 208.305 141.627 206.78 140.587C204.849 139.281 203.051 137.772 201.208 136.344C197.63 133.576 194.098 130.686 190.422 128.039C190.567 127.963 190.74 127.888 190.919 127.819ZM225.224 179.313C228.267 179.295 231.305 179.564 234.298 180.116C234.229 179.914 234.154 179.706 234.073 179.504C231.443 179.022 228.776 178.773 226.102 178.758C218.316 178.614 207.901 179.099 203.196 171.469C201.341 168.464 200.739 164.47 202.78 161.389C204.577 158.673 207.936 157.499 211.086 157.528C212.728 157.538 214.354 157.86 215.877 158.476C217.676 159.296 219.336 160.392 220.796 161.724C223.594 164.106 226.2 166.898 229.703 168.221L229.426 167.551C228.383 167.103 227.394 166.538 226.478 165.869C223.224 163.516 220.594 160.256 216.975 158.418C214.205 157.021 211.032 156.643 208.011 157.349C205.121 158.048 202.549 159.927 201.479 162.788C200.289 165.978 201.219 169.631 203.121 172.354C208.011 179.33 217.634 179.215 225.224 179.313ZM212.022 149.569C214.298 148.478 216.651 147.557 219.062 146.812C218.958 146.644 218.854 146.465 218.744 146.298C213.195 147.852 208.068 151.361 202.346 152.343C195.403 153.444 188.296 151.979 182.353 148.222C180.725 147.204 179.207 146.021 177.822 144.691C177.752 144.876 177.689 145.061 177.625 145.269C178.948 146.513 180.384 147.631 181.914 148.61C187.653 152.286 194.482 153.874 201.254 153.106C205.051 152.592 208.542 151.141 212.022 149.569ZM217.224 210.982C221.465 212.514 225.799 213.777 230.2 214.762C235.078 215.918 241.113 216.889 245.055 220.189C245.003 219.906 244.945 219.611 244.887 219.339C240.951 216.34 235.304 215.38 230.605 214.282C226.191 213.288 221.842 212.026 217.582 210.502C213.924 209.155 210.305 207.346 207.629 204.427C206.475 203.192 205.584 201.735 205.01 200.146C204.436 198.556 204.19 196.866 204.288 195.179C204.514 191.769 206.456 188.665 209.814 187.601C213.415 186.445 217.432 187.804 220.438 189.856C223.871 192.208 226.339 195.74 228.981 198.884C231.483 201.884 234.258 204.664 237.916 206.178C239.289 206.76 240.751 207.102 242.24 207.19C242.199 207.022 242.165 206.843 242.118 206.67C239.2 206.485 236.338 205.051 234.073 203.294C230.738 200.716 228.345 197.127 225.599 193.971C223.085 191.081 220.206 188.515 216.496 187.312C213.282 186.272 209.589 186.376 206.872 188.59C204.502 190.532 203.56 193.676 203.722 196.653C203.919 199.908 205.305 202.977 207.618 205.277C210.265 207.953 213.721 209.675 217.218 210.97L217.224 210.982ZM206.768 225.703C206.155 228.495 206.444 231.35 206.277 234.171H206.808C207.011 230.703 206.462 227.079 207.901 223.813C208.244 222.978 208.765 222.227 209.426 221.613C210.088 220.998 210.875 220.534 211.733 220.253C213.655 219.758 215.691 219.986 217.455 220.894C221.189 222.721 223.183 226.674 224.998 230.188C225.703 231.535 226.426 232.928 227.258 234.234H227.882C225.825 231.113 224.513 227.553 222.293 224.524C220.149 221.634 216.923 219.241 213.138 219.495C209.629 219.732 207.467 222.461 206.762 225.703H206.768ZM173.047 234.09H173.729C174.499 232.734 175.049 231.265 175.359 229.738C176.192 225.9 175.937 221.929 175.672 218.045C175.036 209.045 173.481 199.855 175.452 190.913C176.206 187.251 177.632 183.761 179.66 180.619C181.787 177.44 184.862 174.452 188.578 173.238C189.556 172.875 190.597 172.713 191.639 172.762C192.681 172.81 193.702 173.069 194.642 173.521C196.225 174.412 197.478 175.791 198.214 177.452C200.092 181.452 198.93 185.977 197.138 189.781C193.63 197.202 187.937 203.456 185.11 211.236C183.86 214.71 183.338 218.404 183.574 222.089C183.811 225.774 184.802 229.371 186.486 232.657C186.74 233.148 187.006 233.633 187.289 234.113H187.919C186.529 231.829 185.493 229.349 184.844 226.755C183.897 223.064 183.775 219.21 184.486 215.467C185.272 211.421 187.07 207.704 189.11 204.19C191.15 200.676 193.584 197.254 195.659 193.665C197.734 190.075 199.745 186.047 199.705 181.764C199.664 178.457 198.127 174.955 195.202 173.227C191.734 171.169 187.578 172.568 184.544 174.729C178.573 178.989 175.544 186.139 174.435 193.191C172.99 202.392 174.799 211.687 175.232 220.9C175.411 224.576 175.4 228.374 174.111 231.882C173.838 232.655 173.482 233.395 173.047 234.09ZM181.671 156.407C179.815 154.834 177.484 153.931 175.053 153.84C175.013 153.991 174.972 154.153 174.926 154.303C175.508 154.331 176.088 154.403 176.66 154.517C180.209 155.222 183.804 157.985 183.844 161.886C183.897 166.135 180.29 169.29 176.799 171.048C174.753 172.076 172.608 172.874 170.51 173.758C170.475 173.943 170.435 174.122 170.4 174.336C171.73 173.758 173.082 173.261 174.446 172.706C178.059 171.227 181.7 169.238 183.498 165.597C184.292 164.085 184.544 162.346 184.212 160.67C183.88 158.995 182.983 157.484 181.671 156.389V156.407Z" fill="white"/>
<path d="M214.299 134.229C239.35 153.459 265.47 186.116 265.88 204.947C266.267 223.559 255.811 221.709 254.054 221.131C235.443 215.351 213.016 163.707 204.704 142.685C196.451 121.837 208.08 129.472 214.299 134.229Z" fill="#D3766A"/>
<path d="M254.545 171.741L225.46 188.231C225.46 188.231 206.595 154.829 202.109 139.269C197.624 123.709 203.918 124.05 217.952 135.963C231.986 147.876 254.545 171.741 254.545 171.741Z" fill="#00ADB5"/>
<path d="M248.419 167.348C237.229 175.209 226.345 180.388 224.143 181.689C224.039 181.752 223.952 181.579 224.056 181.521C226.258 180.365 238.176 172.637 248.297 167.163C248.442 167.1 248.54 167.273 248.419 167.348Z" fill="#263238"/>
<path d="M227.327 187.093C226.736 187.321 226.157 187.582 225.593 187.873C222.802 182.319 223.31 183.59 220.461 178.047C219.07 175.35 217.675 172.639 216.276 169.915C214.831 167.094 213.536 164.135 211.941 161.418C211.933 161.401 211.918 161.388 211.9 161.382C211.882 161.376 211.863 161.378 211.846 161.386C211.829 161.395 211.816 161.409 211.81 161.427C211.804 161.445 211.805 161.465 211.814 161.482C212.739 164.152 213.993 166.741 215.178 169.319C214.918 168.92 214.669 168.51 214.38 168.123C213.739 167.262 213.109 166.389 212.542 165.487C212.45 165.348 212.218 165.458 212.305 165.603C212.883 166.47 213.334 167.366 213.814 168.279C214.294 169.192 214.819 170.053 215.357 170.932C215.895 171.811 216.455 172.573 217.033 173.377L217.241 173.677C218.004 175.29 218.744 176.908 219.553 178.504C222.351 184.093 225.229 188.492 225.333 188.463C226.068 188.112 226.774 187.702 227.443 187.237C227.489 187.191 227.408 187.087 227.327 187.093Z" fill="#263238"/>
<path d="M140.662 222.044C149.286 220.784 154.17 204.768 163.742 179.272C165.418 174.799 143.159 149.176 140.136 153.297C136.327 158.499 126.264 187.278 125.235 195.104C123.253 210.525 130.628 223.518 140.662 222.044Z" fill="#D3766A"/>
<path d="M153.927 205.069C154.702 202.901 155.522 200.751 156.349 198.601L158.852 192.168C159.719 190.035 160.551 187.89 161.389 185.752C161.817 184.681 162.229 183.607 162.626 182.532C163.036 181.457 163.435 180.376 163.742 179.267C163.262 181.524 162.615 183.742 161.805 185.902C161.048 188.081 160.21 190.231 159.389 192.382C158.569 194.532 157.655 196.653 156.754 198.768C155.852 200.884 154.904 202.994 153.927 205.069Z" fill="#263238"/>
<path d="M132.148 171.776C133.356 163.025 135.824 150.818 138.951 148.257C142.234 145.575 154.158 136.599 157.597 135.408C161.037 134.217 176.388 128.374 179.209 130.004C181.469 131.31 178.793 137.246 171.493 140.096C165.071 142.593 161.765 144.928 159.933 145.72C158.1 146.511 153.575 152.592 154.788 155.274C155.511 156.852 160.112 158.707 162.973 157.413C165.834 156.118 166.539 150.477 169.805 147.789C173.071 145.101 178.839 145.442 179.174 146.997C179.509 148.552 177.602 149.28 174.654 154.575C172.758 157.973 172.631 166.135 168.331 171.995C166.169 174.937 162.418 182.764 162.418 182.764L132.148 171.776Z" fill="#D3766A"/>
<path d="M172.857 145.373C173.912 145.221 174.902 144.772 175.712 144.078C176.038 143.765 176.265 143.363 176.365 142.922C176.403 142.681 176.403 142.435 176.365 142.194C176.357 141.935 176.259 141.688 176.088 141.494C176.03 141.454 176.117 141.385 176.146 141.442C176.224 141.564 176.311 141.68 176.406 141.789C176.473 141.893 176.529 142.003 176.573 142.119C176.66 142.347 176.701 142.591 176.695 142.835C176.671 143.37 176.468 143.882 176.117 144.286C175.695 144.718 175.179 145.047 174.61 145.247C174.041 145.448 173.433 145.514 172.834 145.442C172.822 145.459 172.822 145.384 172.857 145.373Z" fill="#263238"/>
<path d="M138.951 148.257C141.731 143.893 148.847 136.009 155.898 133.304C160.661 131.472 177.065 139.448 176.591 142.581C176.117 145.714 173.313 145.731 169.163 145.24C167.655 145.061 159.661 142.194 158.297 143.87C156.343 146.286 153.858 154.523 153.858 154.523L138.951 148.257Z" fill="#D3766A"/>
<path d="M176.18 141.356C174.151 138.003 169.701 136.217 165.268 134.807C165.198 134.807 165.158 134.888 165.227 134.911C166.354 135.269 173.579 138.587 176.134 141.413C176.163 141.442 176.203 141.39 176.18 141.356Z" fill="#263238"/>
<path d="M138.951 148.257C141.731 143.893 148.847 136.009 155.898 133.304C160.661 131.472 173.643 141.679 173.163 144.818C172.683 147.956 168.666 148.205 164.216 146.662C162.776 146.159 157.956 142.772 156.592 144.448C154.638 146.858 149.87 152.846 149.87 152.846L138.951 148.257Z" fill="#D3766A"/>
<path d="M152.592 149.124C153.043 148.436 153.17 148.193 153.65 147.511C154.129 146.829 154.575 146.159 155.083 145.517C155.478 144.919 155.975 144.395 156.551 143.968C157.147 143.629 157.836 143.491 158.517 143.575C160.06 143.72 161.453 144.697 162.765 145.448C164.227 146.286 167.256 147.644 169.579 147.396C170.218 147.359 170.842 147.189 171.412 146.899C171.843 146.701 172.219 146.399 172.504 146.02C173.51 144.286 172.25 142.367 170.967 140.986C168.568 138.414 165.343 136.553 162.216 135.021C161.447 134.645 160.672 134.293 159.904 133.934C159.033 133.469 158.074 133.195 157.089 133.131C155.476 133.131 152.835 134.761 152.02 135.258C151.956 135.292 151.91 135.194 151.968 135.154C152.962 134.535 155.436 132.524 158.014 132.651C158.964 132.795 159.881 133.104 160.724 133.564C161.632 133.952 162.528 134.373 163.412 134.813C165.138 135.661 166.796 136.641 168.371 137.743C169.851 138.801 171.429 140.055 172.417 141.575C172.878 142.248 173.149 143.033 173.199 143.847C173.25 144.662 173.08 145.474 172.706 146.199C171.995 147.355 170.475 147.667 169.782 147.76C169.101 147.85 168.411 147.85 167.73 147.76C166.213 147.433 164.722 146.998 163.268 146.459C161.857 145.881 160.586 144.945 159.135 144.506C158.792 144.388 158.43 144.341 158.068 144.366C157.707 144.39 157.354 144.487 157.031 144.65C156.438 145.047 155.908 145.53 155.459 146.084C154.489 147.038 153.61 148.081 152.835 149.199C152.644 149.523 152.43 149.425 152.592 149.124Z" fill="#263238"/>
<path d="M136.894 152.072C137.911 149.991 139.627 141.425 141.281 138.778C142.934 136.131 150.471 127.062 153.997 127.455C158.43 127.946 153.817 135.928 151.5 139.217C149.182 142.506 149.581 148.095 149.581 148.095L136.894 152.072Z" fill="#D3766A"/>
<path d="M154.731 133.79C153.904 134.83 153.176 135.986 152.459 137.102C151.721 138.138 151.061 139.228 150.482 140.362C149.997 141.522 149.706 142.754 149.621 144.009C149.563 144.627 149.546 145.24 149.54 145.858C149.534 146.477 149.598 147.217 149.586 147.887C149.584 147.896 149.583 147.905 149.584 147.914C149.586 147.923 149.589 147.932 149.594 147.939C149.6 147.946 149.607 147.952 149.615 147.957C149.623 147.961 149.632 147.963 149.641 147.963C149.65 147.963 149.659 147.961 149.668 147.957C149.676 147.952 149.683 147.946 149.688 147.939C149.694 147.932 149.697 147.923 149.698 147.914C149.7 147.905 149.699 147.896 149.696 147.887C149.775 146.654 149.935 145.428 150.176 144.217C150.391 142.956 150.762 141.727 151.28 140.558C152.315 138.246 153.829 136.165 154.881 133.859C154.904 133.772 154.788 133.715 154.731 133.79Z" fill="#263238"/>
<path d="M149.633 149.055C149.697 150.092 149.913 151.114 150.274 152.089C150.603 153.079 151.001 154.045 151.465 154.979C151.914 155.911 152.413 156.818 152.962 157.696C153.494 158.58 154.118 159.378 154.771 160.222C156.1 161.869 157.159 163.717 157.91 165.695C158.613 167.675 158.965 169.762 158.95 171.863C158.758 169.793 158.271 167.761 157.505 165.828C156.683 163.929 155.608 162.15 154.309 160.539C153.648 159.72 153.038 158.861 152.482 157.967C151.939 157.062 151.456 156.122 151.037 155.153C150.24 153.228 149.5 151.17 149.633 149.055Z" fill="#263238"/>
<path d="M181.255 136.824C181.38 138.182 181.573 139.532 181.833 140.87C182.038 142.089 182.353 143.286 182.775 144.448C183.602 146.535 185.18 148.494 187.613 149.032C188.745 149.249 189.909 149.236 191.036 148.995C192.163 148.754 193.23 148.288 194.173 147.627C196.191 146.298 197.763 144.413 199.202 142.581C200.1 141.448 200.942 140.281 201.728 139.078C202.121 138.466 202.525 137.865 202.884 137.235C203.242 136.605 203.583 135.969 203.988 135.368C204.022 135.316 204.126 135.368 204.098 135.408C203.312 136.83 200.953 141.338 200.167 142.454C198.728 144.488 197.162 146.563 195.075 148.066C193.076 149.587 190.564 150.271 188.07 149.974C186.874 149.787 185.747 149.297 184.794 148.551C183.841 147.806 183.094 146.829 182.625 145.714C182.073 144.382 181.72 142.976 181.579 141.541C181.382 139.968 181.278 138.385 181.209 136.807C181.22 136.807 181.255 136.807 181.255 136.824Z" fill="#263238"/>
<path d="M189.584 145.107C194.89 144.962 201.433 135.073 203.179 128.004C203.294 127.518 197.04 111.063 196.139 107.67C195.942 106.976 176.215 118.49 176.215 118.49C176.215 118.49 180.197 125.039 181.729 130.957C181.85 131.455 184.451 145.246 189.584 145.107Z" fill="#D3766A"/>
<path d="M176.215 118.49C176.215 118.49 180.197 125.039 181.729 130.963C181.729 131.079 181.925 131.94 182.232 133.189C192.098 129.564 196.89 121.629 199.086 116.294C197.74 112.56 196.497 109.051 196.139 107.681C195.942 106.976 176.215 118.49 176.215 118.49Z" fill="#263238"/>
<path d="M164.886 80.1397C163.62 80.3536 159.372 90.4454 159.99 94.8614C160.609 99.2773 163.493 107.832 164.811 107.791C166.129 107.751 165.886 79.9721 164.886 80.1397Z" fill="#263238"/>
<path d="M195.243 84.0528C199.601 90.9483 201.572 113.768 197.555 120.08C191.711 129.229 179.174 133.374 170.649 125.692C162.378 118.236 160.331 88.4513 165.112 82.4112C172.14 73.5158 188.804 73.8684 195.243 84.0528Z" fill="#D3766A"/>
<path d="M178.845 98.6241C179.518 98.7185 180.195 98.7783 180.874 98.8033C181.654 98.8611 182.272 98.9941 182.983 98.5952C183.172 98.4591 183.31 98.2648 183.377 98.0423C183.444 97.8198 183.435 97.5814 183.353 97.3641C182.949 96.4566 182.012 96.1445 181.076 96.0347C180.137 95.8874 179.178 96.0933 178.382 96.6127C178.204 96.7419 178.068 96.9207 177.991 97.1267C177.914 97.3328 177.899 97.5569 177.948 97.7714C177.998 97.9858 178.109 98.181 178.268 98.3326C178.428 98.4842 178.628 98.5856 178.845 98.6241Z" fill="#263238"/>
<path d="M179.758 103.607C179.758 103.543 179.885 103.664 179.891 103.728C180.001 105.271 180.388 107.017 181.827 107.387C181.873 107.387 181.879 107.473 181.827 107.473C180.082 107.41 179.59 105.08 179.758 103.607Z" fill="#263238"/>
<path d="M180.943 101.861C183.399 101.416 184.099 106.358 181.827 106.762C179.556 107.167 178.891 102.231 180.943 101.861Z" fill="#263238"/>
<path d="M170.903 104.618C170.903 104.56 170.793 104.71 170.805 104.768C171.071 106.294 171.117 108.08 169.805 108.785C169.764 108.785 169.805 108.884 169.805 108.872C171.487 108.415 171.394 106.04 170.903 104.618Z" fill="#263238"/>
<path d="M169.308 103.237C166.822 103.404 167.331 108.363 169.631 108.213C171.932 108.063 171.394 103.104 169.308 103.237Z" fill="#263238"/>
<path d="M167.042 100.607C167.685 100.377 168.316 100.115 168.932 99.8206C169.655 99.5085 170.261 99.3351 170.707 98.6646C170.81 98.4561 170.843 98.2194 170.799 97.9907C170.755 97.7621 170.637 97.5541 170.464 97.3988C169.683 96.7803 168.701 96.9422 167.817 97.2774C166.914 97.5893 166.16 98.226 165.701 99.0634C165.611 99.2595 165.579 99.4775 165.609 99.6912C165.64 99.9049 165.731 100.105 165.873 100.268C166.015 100.431 166.2 100.55 166.408 100.61C166.615 100.67 166.835 100.669 167.042 100.607Z" fill="#263238"/>
<path d="M182.914 116.114C182.602 116.525 182.336 117.068 181.758 117.195C181.187 117.267 180.608 117.215 180.059 117.045C180.053 117.041 180.046 117.039 180.04 117.037C180.033 117.036 180.026 117.036 180.019 117.037C180.013 117.039 180.006 117.041 180.001 117.045C179.995 117.049 179.99 117.054 179.986 117.059C179.982 117.065 179.98 117.072 179.979 117.078C179.977 117.085 179.977 117.092 179.979 117.099C179.98 117.105 179.983 117.112 179.986 117.117C179.99 117.123 179.995 117.128 180.001 117.132C180.26 117.406 180.589 117.605 180.952 117.707C181.316 117.809 181.7 117.81 182.064 117.71C182.364 117.584 182.62 117.373 182.8 117.103C182.98 116.832 183.076 116.514 183.076 116.19C183.081 116.074 182.96 116.057 182.914 116.114Z" fill="#263238"/>
<path d="M180.66 111.762C180.357 112.423 179.921 113.014 179.379 113.499C178.837 113.983 178.2 114.35 177.51 114.577C176.909 114.782 176.282 114.901 175.648 114.93C175.527 114.941 175.405 114.941 175.284 114.93C175.171 114.935 175.057 114.935 174.943 114.93C174.859 114.925 174.778 114.894 174.714 114.839C174.649 114.785 174.604 114.711 174.585 114.629C174.579 114.577 174.579 114.525 174.585 114.473V114.34C174.383 113.184 174.244 111.357 174.244 111.357C173.845 111.635 171.787 112.93 171.735 112.311C171.319 107.173 170.851 101.462 171.516 96.2659C171.522 96.2332 171.54 96.2039 171.566 96.1828C171.592 96.1617 171.624 96.1502 171.657 96.1502C171.691 96.1502 171.723 96.1617 171.749 96.1828C171.775 96.2039 171.792 96.2332 171.799 96.2659C172.377 101.19 172.128 106.184 172.654 111.132C173.383 110.658 174.175 110.291 175.007 110.04C175.18 110.04 175.215 113.508 175.348 114.057C175.344 114.074 175.344 114.092 175.348 114.109C177.359 114.109 178.77 113.271 180.498 111.67C180.596 111.554 180.729 111.629 180.66 111.762Z" fill="#263238"/>
<path d="M197.919 103.641C193.942 104.537 191.364 100.323 189.145 94.2487C187.844 90.694 187.838 83.2667 187.838 83.2667C187.838 83.2667 178.197 89.4628 172.296 89.7287C166.395 89.9946 160.736 85.6423 160.389 81.0587C160.094 77.0994 166.031 71.1113 174.689 69.5739C180.729 68.5046 191.642 72.0015 197.046 77.926C197.046 77.926 205.178 80.5559 204.814 86.4804C204.45 92.4049 202.433 102.624 197.919 103.641Z" fill="#263238"/>
<path d="M197.572 103.219C192.422 105.052 188.549 97.4392 187.862 93.3065C187.145 89.0004 188.22 84.4053 188.405 80.0877H188.37C187.26 85.4457 186.185 92.1794 188.648 97.2947C190.197 100.52 193.416 105.762 197.676 103.502C197.82 103.422 197.734 103.161 197.572 103.219Z" fill="#263238"/>
<path d="M205.768 84.5614C204.548 81.0934 200.023 78.1398 196.52 77.7641C196.485 77.7641 196.474 77.8161 196.52 77.8219C200.786 78.7583 206.126 82.8216 205.473 87.5554C204.947 91.3356 203.837 96.3699 201.739 99.5952C201.687 99.6761 201.809 99.7512 201.867 99.6761C203.566 97.4624 204.08 94.7978 204.757 92.1621C205.317 89.8328 206.589 86.9601 205.768 84.5614Z" fill="#263238"/>
<path d="M197.89 78.3421C192.179 72.0997 180.775 65.6724 172.221 68.967C172.221 68.967 172.221 69.019 172.221 69.0074C181.411 66.3197 190.948 73.169 197.601 78.6716C197.809 78.8334 198.052 78.5155 197.89 78.3421Z" fill="#263238"/>
<path d="M195.364 104.225C195.364 104.225 198.456 95.8844 202.121 96.8034C205.785 97.7225 204.745 108.941 201.352 111.294C200.938 111.629 200.461 111.877 199.948 112.023C199.436 112.169 198.9 112.21 198.371 112.144C197.843 112.078 197.333 111.905 196.873 111.637C196.413 111.369 196.012 111.01 195.693 110.583L195.364 104.225Z" fill="#D3766A"/>
<path d="M201.762 99.994C201.826 99.994 201.855 100.052 201.809 100.092C199.456 101.826 198.705 104.653 198.398 107.439C198.924 106.283 199.855 105.445 201.404 106.034C201.485 106.063 201.45 106.19 201.369 106.19C200.867 106.165 200.37 106.295 199.945 106.563C199.519 106.831 199.187 107.223 198.994 107.687C198.681 108.466 198.45 109.276 198.306 110.103C198.242 110.375 197.786 110.358 197.803 110.063C197.801 110.042 197.801 110.02 197.803 109.999C196.861 106.67 198.254 101.289 201.762 99.994Z" fill="#263238"/>
<path d="M184.792 141.234L196.93 177.423C197.404 178.475 196.93 179.394 195.867 179.475L176.816 180.914C176.235 180.917 175.664 180.756 175.17 180.449C174.676 180.143 174.279 179.703 174.024 179.18L161.886 142.991C161.412 141.934 161.886 141.015 162.95 140.934L181.989 139.471C182.575 139.47 183.15 139.635 183.646 139.947C184.142 140.259 184.54 140.705 184.792 141.234Z" fill="#37474F"/>
<path d="M182.527 141.385L194.665 177.573C195.139 178.625 194.665 179.55 193.601 179.631L174.556 181.093C173.972 181.092 173.4 180.927 172.906 180.615C172.412 180.303 172.016 179.857 171.764 179.33L159.626 143.142C159.147 142.09 159.626 141.171 160.69 141.09L179.758 139.627C180.338 139.631 180.905 139.797 181.395 140.108C181.885 140.419 182.277 140.861 182.527 141.385Z" fill="#455A64"/>
<path d="M177.446 143.471C177.477 143.791 177.603 144.094 177.806 144.343C178.01 144.591 178.283 144.774 178.59 144.867C178.898 144.96 179.226 144.961 179.534 144.867C179.841 144.774 180.114 144.592 180.318 144.343C180.522 144.095 180.647 143.792 180.679 143.472C180.71 143.152 180.646 142.83 180.495 142.547C180.343 142.264 180.111 142.032 179.828 141.88C179.544 141.729 179.222 141.665 178.903 141.697C178.474 141.739 178.08 141.95 177.807 142.282C177.534 142.615 177.404 143.043 177.446 143.471Z" fill="#263238"/>
<path d="M257.985 221.374C249.696 222.582 239.234 216.23 212.126 196.901C208.369 194.208 220.126 162.667 224.264 165.308C229.495 168.643 249.072 182.735 250.372 183.949C261.372 194.208 263.62 220.507 257.985 221.374Z" fill="#D3766A"/>
<path d="M233.992 174.712C233.992 174.712 226.212 164.054 220.391 159.713C212.594 153.933 203.473 152.106 199.583 151.581C191.491 150.482 171.261 153.413 171.059 159.401C170.897 164.822 191.474 160.776 191.474 160.776C191.474 160.776 169.816 161.435 170.822 167.996C171.828 174.556 195.456 168.51 195.456 168.51C195.456 168.51 173.215 169.666 175.325 176.29C176.92 181.278 198.624 177.001 198.624 177.001C198.624 177.001 179.515 178.157 180.931 183.359C182.503 189.104 202.78 186.417 202.78 186.417C208.658 199.017 216.577 202.641 222.53 204.543C223.969 204.999 233.992 174.712 233.992 174.712Z" fill="#D3766A"/>
<path d="M198.977 160.071C196.428 160.071 193.85 160.025 191.312 160.233C188.775 160.441 186.237 160.748 183.729 161.193C177.573 162.291 173.903 163.944 174.134 163.863C179.775 162.042 188.85 161.141 191.393 160.927C193.936 160.713 196.451 160.378 198.988 160.164C199.052 160.158 199.034 160.071 198.977 160.071Z" fill="#263238"/>
<path d="M199.907 169.227C196.653 169.348 193.422 169.348 190.174 169.614C186.925 169.88 183.896 170.418 180.689 170.903C180.44 170.938 180.544 171.059 180.793 171.03C184.012 170.672 187.023 170.591 190.249 170.273C193.474 169.955 196.693 169.504 199.919 169.302C199.988 169.302 199.988 169.227 199.907 169.227Z" fill="#263238"/>
<path d="M202.121 176.943C197.138 176.874 192.15 177.723 187.278 178.677C187.035 178.723 187.185 178.868 187.434 178.833C192.358 178.163 196.214 177.602 202.121 177.099C202.208 177.105 202.225 176.943 202.121 176.943Z" fill="#263238"/>
<path d="M242.905 178.388C245.055 179.804 247.124 181.336 249.13 182.96C250.136 183.764 251.1 184.619 252.02 185.521C252.972 186.417 253.808 187.429 254.511 188.532C255.845 190.752 256.966 193.094 257.857 195.526C258.783 197.937 259.438 200.444 259.811 202.999C259.534 201.746 259.187 200.509 258.771 199.294C258.372 198.075 257.933 196.873 257.441 195.688C256.502 193.311 255.357 191.022 254.019 188.844C253.36 187.764 252.563 186.773 251.65 185.896C250.754 184.989 249.789 184.162 248.829 183.295C247.87 182.428 246.875 181.631 245.881 180.816C244.887 180.001 243.916 179.18 242.905 178.388Z" fill="#263238"/>
<path d="M160.84 65.1001C160.84 65.1001 158.464 84.1163 154.557 88.3993C149.87 93.532 146.465 92.7806 144.575 95.4278C142.679 92.7748 139.281 93.532 134.587 88.3935C130.686 84.1163 128.316 65.1001 128.316 65.1001C138.604 60.1062 144.581 54.5054 144.581 54.5054C144.76 54.6846 150.708 60.1814 160.84 65.1001Z" fill="#00ADB5"/>
<path opacity="0.2" d="M144.575 54.5112V95.4278C142.679 92.7748 139.281 93.532 134.587 88.3935C130.686 84.1163 128.316 65.1001 128.316 65.1001C138.604 60.1062 144.581 54.5054 144.581 54.5054L144.575 54.5112Z" fill="black"/>
<path opacity="0.1" d="M160.84 65.1001C160.84 65.1001 158.464 84.1163 154.557 88.3993C149.87 93.532 146.465 92.7806 144.575 95.4278V54.5112C144.76 54.6846 150.708 60.1814 160.84 65.1001Z" fill="black"/>
<path d="M158.314 66.6318C158.314 66.6318 156.309 82.7002 153.008 86.3127C149.049 90.6593 146.17 90.0177 144.575 92.2546C142.974 90.0177 140.101 90.6593 136.136 86.3127C132.836 82.7002 130.836 66.6318 130.836 66.6318C139.506 62.4124 144.575 57.6844 144.575 57.6844C144.575 57.6844 149.621 62.424 158.314 66.6318Z" fill="#00ADB5"/>
<path opacity="0.1" d="M144.575 57.6902V92.2546C142.98 90.0177 140.101 90.6535 136.142 86.3127C132.842 82.6945 130.842 66.6261 130.842 66.6261C139.512 62.4067 144.575 57.6786 144.575 57.6786V57.6902Z" fill="black"/>
<path d="M150.731 71.909H138.419V83.0759H150.731V71.909Z" fill="white"/>
<path d="M149.5 75.3596H148.245V70.3715C148.245 69.3981 147.859 68.4645 147.17 67.7762C146.482 67.0879 145.549 66.7012 144.575 66.7012C143.602 66.7012 142.668 67.0879 141.98 67.7762C141.291 68.4645 140.905 69.3981 140.905 70.3715V75.3596H139.651V70.3715C139.604 69.698 139.697 69.0221 139.923 68.386C140.149 67.7498 140.503 67.1669 140.964 66.6734C141.425 66.18 141.982 65.7865 142.601 65.5175C143.221 65.2485 143.888 65.1097 144.564 65.1097C145.239 65.1097 145.907 65.2485 146.526 65.5175C147.145 65.7865 147.702 66.18 148.163 66.6734C148.624 67.1669 148.978 67.7498 149.204 68.386C149.43 69.0221 149.523 69.698 149.477 70.3715L149.5 75.3596Z" fill="white"/>
<path d="M144.962 77.6832L145.361 79.5675H143.673L144.072 77.6832C143.916 77.5864 143.796 77.4415 143.73 77.2704C143.664 77.0993 143.656 76.9113 143.706 76.7348C143.756 76.5584 143.863 76.4032 144.009 76.2926C144.155 76.1821 144.334 76.1223 144.517 76.1223C144.701 76.1223 144.879 76.1821 145.026 76.2926C145.172 76.4032 145.279 76.5584 145.329 76.7348C145.379 76.9113 145.371 77.0993 145.304 77.2704C145.238 77.4415 145.118 77.5864 144.962 77.6832Z" fill="#37474F"/>
<path d="M144.789 140.315H142.327V139.876H144.575V140.026H144.789V140.315ZM140.015 140.315H137.703V139.876H140.015V140.315ZM135.391 140.315H133.079V139.876H135.391V140.315ZM130.767 140.315H128.455V139.876H130.767V140.315ZM144.789 137.72H144.355V135.408H144.789V137.72ZM144.789 133.096H144.355V130.784H144.789V133.096ZM144.789 128.472H144.355V126.16H144.789V128.472ZM144.789 123.848H144.355V121.536H144.789V123.848ZM144.789 119.224H144.355V116.912H144.789V119.224ZM144.789 114.6H144.355V112.288H144.789V114.6ZM144.789 109.976H144.355V107.664H144.789V109.976ZM144.789 105.352H144.355V103.04H144.789V105.352ZM144.789 100.728H144.355V98.4161H144.789V100.728Z" fill="#00ADB5"/>
<path d="M145.552 97.9421C145.552 97.7489 145.495 97.5601 145.387 97.3994C145.28 97.2388 145.127 97.1136 144.949 97.0396C144.77 96.9657 144.574 96.9464 144.385 96.9841C144.195 97.0217 144.021 97.1148 143.884 97.2514C143.748 97.388 143.655 97.5621 143.617 97.7515C143.579 97.941 143.599 98.1374 143.673 98.3159C143.747 98.4944 143.872 98.647 144.032 98.7543C144.193 98.8616 144.382 98.9189 144.575 98.9189C144.834 98.9189 145.083 98.816 145.266 98.6328C145.449 98.4496 145.552 98.2012 145.552 97.9421Z" fill="#00ADB5"/>
<path d="M60.4299 72.1517H30.7727V34.0789H52.7945L60.4299 41.3386V72.1517Z" fill="#EBEBEB"/>
<path d="M52.7945 34.0789L60.4299 41.3386H52.7945V34.0789Z" fill="#DBDBDB"/>
<path d="M33.6685 41.4426H50.1588V40.4658H33.6685V41.4426Z" fill="#DBDBDB"/>
<path d="M33.6685 43.9107H50.1588V42.9338H33.6685V43.9107Z" fill="#DBDBDB"/>
<path d="M33.6685 46.3845H50.1588V45.4077H33.6685V46.3845Z" fill="#DBDBDB"/>
<path d="M33.6685 48.8526H57.8289V47.8757H33.6685V48.8526Z" fill="#DBDBDB"/>
<path d="M33.6685 51.3206H57.8289V50.3438H33.6685V51.3206Z" fill="#DBDBDB"/>
<path d="M33.6685 53.7887H57.8289V52.8119H33.6685V53.7887Z" fill="#DBDBDB"/>
<path d="M33.6685 56.2567H57.8289V55.2799H33.6685V56.2567Z" fill="#DBDBDB"/>
<path d="M33.6685 58.719H57.8289V57.7422H33.6685V58.719Z" fill="#DBDBDB"/>
<path d="M33.6685 61.1871H57.8289V60.2103H33.6685V61.1871Z" fill="#DBDBDB"/>
<path d="M33.6685 63.6551H57.8289V62.6783H33.6685V63.6551Z" fill="#DBDBDB"/>
<path d="M33.6685 66.1232H57.8289V65.1464H33.6685V66.1232Z" fill="#DBDBDB"/>
<path d="M33.6685 68.5913H57.8289V67.6144H33.6685V68.5913Z" fill="#DBDBDB"/>
<path d="M62.4336 75.6172C65.0854 74.5117 66.339 71.4658 65.2335 68.814C64.128 66.1622 61.0822 64.9087 58.4304 66.0142C55.7786 67.1196 54.5251 70.1655 55.6305 72.8173C56.736 75.4691 59.7818 76.7226 62.4336 75.6172Z" fill="#263238"/>
<path d="M63.0078 69.5045H57.852V74.1863H63.0078V69.5045Z" fill="white"/>
<path d="M62.4934 70.9437H61.9674V68.8571C61.9674 68.4494 61.8054 68.0583 61.5171 67.77C61.2287 67.4816 60.8377 67.3197 60.4299 67.3197C60.0221 67.3197 59.6311 67.4816 59.3427 67.77C59.0544 68.0583 58.8924 68.4494 58.8924 68.8571V70.9437H58.378V68.8571C58.378 68.3099 58.5954 67.785 58.9824 67.3981C59.3693 67.0111 59.8942 66.7937 60.4415 66.7937C60.9887 66.7937 61.5136 67.0111 61.9005 67.3981C62.2875 67.785 62.5049 68.3099 62.5049 68.8571L62.4934 70.9437Z" fill="white"/>
<path d="M60.6495 71.8974L60.8634 72.9263H59.9501L60.164 71.8974C60.0801 71.8447 60.0156 71.7662 59.9802 71.6737C59.9449 71.5811 59.9405 71.4796 59.968 71.3844C59.9954 71.2892 60.053 71.2054 60.1321 71.1459C60.2113 71.0863 60.3077 71.0541 60.4068 71.0541C60.5058 71.0541 60.6022 71.0863 60.6814 71.1459C60.7605 71.2054 60.8182 71.2892 60.8456 71.3844C60.873 71.4796 60.8687 71.5811 60.8333 71.6737C60.7979 71.7662 60.7334 71.8447 60.6495 71.8974Z" fill="#263238"/>
<path d="M80.7523 92.0581H80.342V89.7461H80.7755L80.7523 92.0581ZM80.7523 87.4341H80.342V85.1221H80.7755L80.7523 87.4341ZM80.7523 82.8101H80.342V80.4981H80.7755L80.7523 82.8101ZM80.7523 78.1861H80.342V75.8741H80.7755L80.7523 78.1861ZM80.7523 73.5621H80.342V71.2501H80.7755L80.7523 73.5621ZM80.7523 68.9381H80.342V66.6261H80.7755L80.7523 68.9381ZM80.7523 64.3141H80.342V62.0021H80.7755L80.7523 64.3141ZM80.7523 59.6901H80.342V57.3781H80.7755L80.7523 59.6901ZM78.608 57.222H76.296V56.7885H78.608V57.222ZM73.984 57.222H71.672V56.7885H73.984V57.222ZM69.36 57.222H67.048V56.7885H69.36V57.222ZM64.736 57.222H63.736V56.7885H64.736V57.222Z" fill="#00ADB5"/>
<path d="M63.7592 56.066C63.5636 56.0649 63.3722 56.1222 63.2094 56.2305C63.0465 56.3388 62.9198 56.4933 62.8452 56.6741C62.7707 56.8549 62.7518 57.0538 62.791 57.2454C62.8301 57.437 62.9256 57.6125 63.0651 57.7496C63.2046 57.8866 63.3819 57.9789 63.5741 58.0146C63.7664 58.0504 63.9649 58.0279 64.1444 57.9502C64.3238 57.8724 64.476 57.7429 64.5813 57.5781C64.6867 57.4134 64.7406 57.221 64.736 57.0255C64.73 56.7699 64.6246 56.5267 64.4422 56.3476C64.2598 56.1684 64.0148 56.0674 63.7592 56.066Z" fill="#00ADB5"/>
<path d="M97.3699 220.628H96.0116V220.218H97.3699V220.628ZM93.6996 220.628H91.3876V220.218H93.6996V220.628ZM89.0756 220.628H86.7636V220.218H89.0756V220.628ZM84.4516 220.628H82.1396V220.218H84.4516V220.628ZM80.7524 219.704H80.342V217.392H80.7755L80.7524 219.704ZM80.7524 215.08H80.342V212.768H80.7755L80.7524 215.08ZM80.7524 210.456H80.342V208.144H80.7755L80.7524 210.456ZM80.7524 205.832H80.342V203.52H80.7755L80.7524 205.832ZM80.7524 201.208H80.342V198.896H80.7755L80.7524 201.208ZM80.7524 196.584H80.342V194.272H80.7755L80.7524 196.584ZM80.7524 191.96H80.342V189.648H80.7755L80.7524 191.96Z" fill="#00ADB5"/>
<path d="M97.3178 221.391C97.8573 221.391 98.2946 220.954 98.2946 220.415C98.2946 219.875 97.8573 219.438 97.3178 219.438C96.7783 219.438 96.341 219.875 96.341 220.415C96.341 220.954 96.7783 221.391 97.3178 221.391Z" fill="#00ADB5"/>
<path d="M137.668 214.074H100.734V236.362H137.668V214.074Z" fill="#455A64"/>
<path d="M113.958 216.877H103.635V230.079H113.958V216.877Z" fill="white"/>
<path d="M108.797 224.605C110.147 224.605 111.242 223.51 111.242 222.16C111.242 220.81 110.147 219.715 108.797 219.715C107.447 219.715 106.352 220.81 106.352 222.16C106.352 223.51 107.447 224.605 108.797 224.605Z" fill="#455A64"/>
<path d="M113.958 230.079H103.635C103.635 230.079 103.919 227.616 104.421 226.882C104.924 226.148 106.254 225.322 108.797 225.322C111.34 225.322 112.67 226.148 113.172 226.882C113.675 227.616 113.958 230.079 113.958 230.079Z" fill="#455A64"/>
<path d="M133.622 216.877H116.629V217.519H133.622V216.877Z" fill="white"/>
<path d="M133.622 223.154H116.629V223.796H133.622V223.154Z" fill="white"/>
<path d="M133.622 225.004H116.629V225.645H133.622V225.004Z" fill="white"/>
<path d="M133.622 226.848H116.629V227.489H133.622V226.848Z" fill="white"/>
<path d="M133.622 228.697H116.629V229.339H133.622V228.697Z" fill="white"/>
<path d="M133.622 230.541H116.629V231.183H133.622V230.541Z" fill="white"/>
<path d="M130.391 218.727H116.629V219.368H130.391V218.727Z" fill="white"/>
<path d="M139.67 241.168C142.321 240.063 143.575 237.017 142.469 234.365C141.364 231.714 138.318 230.46 135.666 231.565C133.015 232.671 131.761 235.717 132.866 238.369C133.972 241.02 137.018 242.274 139.67 241.168Z" fill="#263238"/>
<path d="M140.246 235.049H135.09V239.731H140.246V235.049Z" fill="white"/>
<path d="M139.731 236.489H139.205V234.402C139.205 233.994 139.044 233.603 138.755 233.315C138.467 233.027 138.076 232.865 137.668 232.865C137.26 232.865 136.869 233.027 136.581 233.315C136.293 233.603 136.131 233.994 136.131 234.402V236.489H135.605V234.402C135.605 233.855 135.822 233.33 136.209 232.943C136.596 232.556 137.121 232.339 137.668 232.339C138.215 232.339 138.74 232.556 139.127 232.943C139.514 233.33 139.731 233.855 139.731 234.402V236.489Z" fill="white"/>
<path d="M137.888 237.442L138.102 238.471H137.182L137.402 237.442C137.335 237.4 137.28 237.341 137.242 237.271C137.205 237.201 137.186 237.123 137.188 237.043C137.191 236.964 137.213 236.886 137.255 236.818C137.296 236.751 137.354 236.695 137.424 236.656C137.493 236.618 137.571 236.598 137.651 236.599C137.73 236.6 137.808 236.622 137.877 236.662C137.945 236.702 138.002 236.76 138.041 236.829C138.081 236.898 138.101 236.976 138.102 237.055C138.102 237.133 138.082 237.209 138.045 237.276C138.007 237.344 137.953 237.401 137.888 237.442Z" fill="#263238"/>
</svg>
