<svg width="269" height="269" viewBox="0 0 269 269" fill="none" xmlns="http://www.w3.org/2000/svg">
<path d="M269 205.731H0V205.866H269V205.731Z" fill="#EBEBEB"/>
<path d="M242.046 214.388H224.228V214.522H242.046V214.388Z" fill="#EBEBEB"/>
<path d="M178.196 215.851H173.521V215.985H178.196V215.851Z" fill="#EBEBEB"/>
<path d="M223.69 209.395H213.365V209.529H223.69V209.395Z" fill="#EBEBEB"/>
<path d="M51.4597 210.299H28.2235V210.433H51.4597V210.299Z" fill="#EBEBEB"/>
<path d="M59.6588 210.299H56.2533V210.433H59.6588V210.299Z" fill="#EBEBEB"/>
<path d="M121.131 212.569H70.7309V212.704H121.131V212.569Z" fill="#EBEBEB"/>
<path d="M127.506 181.736H23.6236C22.8098 181.735 22.0298 181.411 21.4548 180.835C20.8799 180.259 20.557 179.478 20.557 178.664V32.6351C20.5641 31.8259 20.8901 31.0523 21.4643 30.4821C22.0385 29.912 22.8144 29.5914 23.6236 29.59H127.506C128.321 29.59 129.102 29.9137 129.678 30.4898C130.254 31.0659 130.578 31.8472 130.578 32.662V178.664C130.578 179.479 130.254 180.261 129.678 180.837C129.102 181.413 128.321 181.736 127.506 181.736ZM23.6236 29.6976C22.8454 29.699 22.0997 30.0091 21.5499 30.5599C21.0002 31.1106 20.6915 31.8569 20.6915 32.6351V178.664C20.6915 179.443 21.0002 180.189 21.5499 180.74C22.0997 181.29 22.8454 181.6 23.6236 181.602H127.506C128.285 181.6 129.031 181.291 129.582 180.74C130.132 180.189 130.442 179.443 130.443 178.664V32.6351C130.442 31.8564 130.132 31.1101 129.582 30.5595C129.031 30.009 128.285 29.699 127.506 29.6976H23.6236Z" fill="#EBEBEB"/>
<path d="M243.881 181.736H139.993C139.179 181.735 138.398 181.411 137.822 180.835C137.247 180.259 136.922 179.479 136.921 178.664V32.6351C136.929 31.8254 137.257 31.0518 137.832 30.4818C138.407 29.9118 139.183 29.5914 139.993 29.59H243.881C244.689 29.5928 245.464 29.914 246.037 30.484C246.61 31.054 246.935 31.8269 246.942 32.6351V178.664C246.942 179.477 246.62 180.257 246.046 180.833C245.472 181.409 244.694 181.734 243.881 181.736ZM139.993 29.6976C139.214 29.699 138.468 30.009 137.917 30.5595C137.367 31.1101 137.057 31.8564 137.055 32.6351V178.664C137.057 179.443 137.367 180.189 137.917 180.74C138.468 181.291 139.214 181.6 139.993 181.602H243.881C244.659 181.6 245.406 181.291 245.956 180.74C246.507 180.189 246.817 179.443 246.818 178.664V32.6351C246.817 31.8564 246.507 31.1101 245.956 30.5595C245.406 30.009 244.659 29.699 243.881 29.6976H139.993Z" fill="#EBEBEB"/>
<path d="M195.235 204.693H23.4407C23.4407 204.693 28.74 196.531 33.1569 189.989C35.9545 185.852 38.3917 182.36 38.9189 181.984C40.2747 181.015 43.7609 180.434 45.305 176.846C46.849 173.258 46.849 171.73 49.071 167.668C51.2929 163.606 59.831 152.604 60.7187 152.604C61.6064 152.604 69.3267 140.585 72.248 139.616C75.1694 138.648 75.476 135.748 78.6448 131.396C81.8137 127.043 92.3208 113.104 96.7701 112.786C101.219 112.469 112.114 133.413 116.326 134.973C120.539 136.534 125.209 129.749 126.699 131.396C128.189 133.042 131.207 139.229 134.279 144.259C137.351 149.29 140.45 151.608 140.735 153.513C141.021 155.417 147.272 158.769 150.393 158.769C151.469 158.769 153.734 161.115 156.311 164.224C161.33 170.299 167.415 179.288 167.415 179.288C168.249 180.499 169.707 178.707 172.219 179.67C174.732 180.633 195.235 204.693 195.235 204.693Z" fill="#F0F0F0"/>
<path d="M195.235 204.693H23.4407C23.4407 204.693 28.74 196.531 33.1569 189.989C35.7178 187.165 37.773 185.05 38.5369 184.609C41.3399 182.995 43.5134 179.332 45.2028 178.863C46.5324 178.39 47.7796 177.711 48.8988 176.851C48.8988 176.851 51.5189 168.647 52.1268 167.2C52.7348 165.752 60.6434 156.73 62.4134 156.09C64.1834 155.45 65.3293 157.58 66.3838 158.742C67.4383 159.904 75.5298 174.393 75.5298 174.393L80.657 170.987C80.657 170.987 83.6375 167.157 84.7727 165.241C85.9078 163.326 87.0054 163.751 87.0054 163.751C87.0054 163.751 92.3854 157.58 92.6436 155.918C92.9018 154.255 96.1944 155.025 96.4096 155.025C96.6248 155.025 101.962 157.58 101.962 157.58C101.962 157.58 96.3827 150.559 94.0263 152.453C91.6698 154.347 78.2951 167.2 78.2951 167.2L70.6717 157.58L74.2494 152.453C74.2494 152.453 79.1452 146.298 79.5702 145.459C79.9952 144.62 88.2966 132.902 88.4257 132.262C88.5548 131.622 95.5327 126.091 96.4096 126.511C97.2865 126.93 99.1534 128.222 101.252 130.998C103.35 133.774 104.264 135.458 106.449 139.035C108.633 142.613 110.435 143.544 111.156 144.442C111.877 145.341 119.845 153.911 120.092 154.18L114.04 144.442C114.04 144.442 117.037 141.629 118.973 139.713C120.91 137.798 121.507 140.353 124.047 142.269C126.586 144.184 127.038 145.459 128.953 148.407C130.869 151.356 139.939 161.857 139.939 161.857C139.939 161.857 138.53 164.198 137.002 166.57C135.474 168.943 134.5 172.752 134.5 172.752L137.19 171.197C137.19 171.197 142.866 165.661 143.856 164.241C144.846 162.82 147.547 160.13 149.903 160.34C152.173 160.55 156.036 163.982 156.311 164.225C161.33 170.299 167.415 179.289 167.415 179.289C168.249 180.499 169.707 178.707 172.219 179.67C174.732 180.633 195.235 204.693 195.235 204.693Z" fill="#E6E6E6"/>
<path d="M53.9022 78.9838C62.9884 78.9838 70.3543 71.618 70.3543 62.5318C70.3543 53.4455 62.9884 46.0797 53.9022 46.0797C44.816 46.0797 37.4502 53.4455 37.4502 62.5318C37.4502 71.618 44.816 78.9838 53.9022 78.9838Z" fill="#F5F5F5"/>
<path d="M45.2189 83.2286C45.2197 82.4895 45.3931 81.7608 45.7253 81.1006C46.0576 80.4404 46.5395 79.8669 47.1326 79.4258C47.7256 78.9848 48.4136 78.6884 49.1415 78.5603C49.8694 78.4322 50.6172 78.4759 51.3252 78.6879C51.1149 77.2604 51.2147 75.8043 51.618 74.4189C52.0212 73.0335 52.7184 71.7513 53.662 70.6596C54.6055 69.568 55.7733 68.6926 57.0858 68.093C58.3983 67.4935 59.8245 67.1839 61.2674 67.1854C61.8882 67.1881 62.5075 67.2457 63.1182 67.3576C64.1069 65.7291 65.5989 64.4667 67.3685 63.761C69.1382 63.0553 71.0894 62.9448 72.9274 63.4461C74.7655 63.9473 76.3904 65.0332 77.5568 66.5396C78.7232 68.046 79.3676 69.8911 79.3927 71.7961H79.5433C81.6893 71.7961 83.7474 72.6486 85.2649 74.166C86.7823 75.6835 87.6348 77.7416 87.6348 79.8876C87.6348 82.0336 86.7823 84.0917 85.2649 85.6092C83.7474 87.1266 81.6893 87.9791 79.5433 87.9791H49.8296C48.5931 87.9454 47.4189 87.4298 46.5574 86.5422C45.696 85.6546 45.2156 84.4655 45.2189 83.2286Z" fill="#EBEBEB"/>
<path d="M101.515 54.0259C101.515 53.2226 101.834 52.4522 102.402 51.8842C102.97 51.3161 103.741 50.997 104.544 50.997C104.84 50.9953 105.133 51.0389 105.416 51.1261C105.371 50.8179 105.347 50.5069 105.346 50.1954C105.346 48.4946 106.021 46.8634 107.224 45.6607C108.427 44.4581 110.058 43.7824 111.759 43.7824C112.156 43.7826 112.552 43.8186 112.942 43.89C113.575 42.8511 114.528 42.046 115.658 41.5962C116.787 41.1463 118.033 41.0762 119.206 41.3962C120.38 41.7163 121.417 42.4092 122.162 43.3705C122.907 44.3317 123.319 45.5092 123.337 46.7253H123.428C124.121 46.7029 124.811 46.8201 125.457 47.0697C126.104 47.3193 126.693 47.6964 127.191 48.1784C127.689 48.6605 128.085 49.2377 128.355 49.8758C128.626 50.5139 128.765 51.1998 128.765 51.8928C128.765 52.5858 128.626 53.2717 128.355 53.9098C128.085 54.5479 127.689 55.1251 127.191 55.6071C126.693 56.0892 126.104 56.4662 125.457 56.7159C124.811 56.9655 124.121 57.0826 123.428 57.0603H104.458C103.669 57.0378 102.92 56.7081 102.37 56.1413C101.82 55.5745 101.513 54.8155 101.515 54.0259Z" fill="#EBEBEB"/>
<path d="M193.519 104.254C193.518 104.01 193.565 103.768 193.658 103.543C193.751 103.317 193.888 103.112 194.061 102.94C194.233 102.767 194.438 102.63 194.664 102.537C194.889 102.444 195.131 102.397 195.375 102.398C195.557 102.397 195.739 102.424 195.913 102.478C195.885 102.289 195.87 102.099 195.87 101.908C195.869 101.392 195.97 100.88 196.167 100.403C196.364 99.9262 196.653 99.4927 197.018 99.1274C197.383 98.7621 197.816 98.4724 198.293 98.2747C198.77 98.0769 199.281 97.9752 199.797 97.9752C200.041 97.9766 200.284 98 200.523 98.0451C200.911 97.4087 201.494 96.9156 202.186 96.6401C202.878 96.3646 203.641 96.3217 204.36 96.5179C205.078 96.7141 205.714 97.1387 206.17 97.7277C206.626 98.3167 206.878 99.038 206.888 99.7829H206.947C207.764 99.8166 208.537 100.165 209.103 100.755C209.669 101.345 209.985 102.131 209.985 102.949C209.985 103.767 209.669 104.553 209.103 105.143C208.537 105.733 207.764 106.081 206.947 106.115H195.326C194.841 106.104 194.38 105.902 194.042 105.554C193.703 105.206 193.516 104.739 193.519 104.254Z" fill="#EBEBEB"/>
<path d="M211.09 60.794C211.091 60.3022 211.287 59.8309 211.635 59.4831C211.983 59.1353 212.454 58.9393 212.946 58.9379C213.128 58.9366 213.31 58.9638 213.484 59.0186C213.456 58.8298 213.441 58.6392 213.441 58.4483C213.441 57.4067 213.855 56.4078 214.591 55.6712C215.328 54.9347 216.327 54.5209 217.368 54.5209C217.612 54.5206 217.855 54.5422 218.094 54.5855C218.483 53.9504 219.067 53.4586 219.759 53.1841C220.451 52.9095 221.214 52.867 221.932 53.0629C222.65 53.2589 223.285 53.6827 223.742 54.2706C224.199 54.8585 224.452 55.5789 224.464 56.3232H224.518C225.335 56.3569 226.108 56.7052 226.674 57.2953C227.24 57.8854 227.556 58.6715 227.556 59.4894C227.556 60.3072 227.24 61.0933 226.674 61.6834C226.108 62.2735 225.335 62.6218 224.518 62.6555H212.897C212.412 62.6442 211.951 62.4428 211.613 62.0946C211.275 61.7464 211.087 61.2793 211.09 60.794Z" fill="#EBEBEB"/>
<path d="M240.249 204.687H60.7133C60.7133 204.687 66.3892 192.066 69.289 193.26C72.1888 194.455 81.351 186.88 82.6745 183.824C83.9979 180.768 88.5925 184.825 94.7687 183.533C100.945 182.242 109.983 162.379 112.776 163.407C115.568 164.434 123.654 183.011 125.575 183.705C127.495 184.4 129.341 178.374 132.031 177.857C134.721 177.341 136.83 181.984 137.351 183.275C137.873 184.566 140.466 188.693 140.466 188.693C140.466 188.693 144.571 187.402 145.873 186.369C147.175 185.336 153.599 172.44 154.955 170.605C156.311 168.771 159.017 167.28 163.105 168.055C167.194 168.83 168.819 161.599 173.327 157.204C177.836 152.808 180.155 154.379 181.72 154.169C183.286 153.959 191.765 139.681 193.825 140.891C195.886 142.102 205.172 159.539 206.845 161.604C208.518 163.67 212.397 160.319 212.854 161.604C213.312 162.89 220.51 172.956 220.51 172.956C220.51 172.956 223.738 172.698 225.691 174.247C226.019 174.506 226.649 175.544 227.472 177.088L227.639 177.4C231.76 185.244 240.249 204.687 240.249 204.687Z" fill="#EBEBEB"/>
<path d="M240.249 204.687H154.304C151.732 200.921 147.509 194.67 147.643 194.229C147.837 193.594 155.767 177.922 159.544 175.792C163.321 173.661 166.14 175.404 166.14 175.404L163.089 183.7C163.315 183.404 170.503 174.145 172.413 172.752C174.323 171.358 173.65 170.18 173.322 169.599C172.994 169.018 168.771 170.524 168.545 170.6C168.873 170.266 177.276 161.76 178.794 160.948C180.311 160.136 183.399 160.125 183.399 160.125C183.399 160.125 189.042 152.668 190.979 149.903C192.916 147.138 197.844 151.232 198.764 154.417C199.684 157.602 202.977 160.873 202.977 160.873L205.301 167.453C205.301 167.453 198.237 162.229 196.93 162.611C195.494 162.915 194.037 163.109 192.572 163.192C192.572 163.192 191.173 159.13 189.435 158.543C187.697 157.957 184.018 160.695 181.306 164.348C177.895 168.98 185.954 159.13 189.823 164.348C193.691 169.567 194.336 167.834 196.332 166.5C198.328 165.166 205.29 175.98 206.839 177.529C208.389 179.079 211.391 173.855 211.391 173.855C211.391 173.855 208.394 176.545 208.782 174.624C209.169 172.703 209.32 165.833 212.225 165.537C215.13 165.241 218.046 173.661 218.046 173.661L214.969 177.814L223.27 174.436L227.445 177.088L227.612 177.4C231.76 185.244 240.249 204.687 240.249 204.687Z" fill="#E0E0E0"/>
<path d="M63.4517 204.687C64.5708 202.799 65.5499 200.954 65.3186 200.626C64.8236 199.915 70.2628 197.656 71.4625 196.93C72.6623 196.203 73.932 195.719 77.0524 195.902C80.1728 196.085 79.1559 196.3 79.9898 196.93C80.8237 197.559 80.969 202.084 80.969 202.084C80.969 202.084 82.6368 199.012 82.6745 196.93C82.7121 194.847 79.9845 193.26 79.9845 193.26C79.9845 193.26 80.7 192.039 81.3348 191.178C81.9697 190.318 84.9556 185.857 86.8924 185.26C88.8292 184.663 92.3047 186.229 93.8595 187.192C95.4143 188.155 95.4035 188.16 96.7593 188.935C98.1151 189.71 97.7277 190.484 98.3087 193.239C98.8898 195.993 99.8528 192.986 101.537 194.207C103.221 195.429 104.996 198.151 104.996 198.151C104.996 198.151 104.496 194.729 103.285 193.239C102.075 191.749 101.537 187.767 101.537 187.767L103.285 183.684C103.285 183.684 107.207 176.932 109.548 173.839C111.888 170.745 111.85 172.095 114.594 174.807C117.338 177.518 117.069 177.126 118.656 180.295C120.243 183.463 125.354 191.178 125.354 191.178L125.198 188.171C125.198 188.171 128.695 184.502 130.244 185.658C131.794 186.815 132.934 189.338 132.934 189.338L131.186 191.178C131.186 191.178 129.066 195.332 128.168 195.902C127.269 196.472 130.422 195.138 132.934 194.229C135.447 193.32 137.384 190.108 138.938 191.178C140.063 191.953 146.788 200.238 150.371 204.687H63.4517Z" fill="#E0E0E0"/>
<path d="M58.2116 118.575C58.2116 118.575 58.0448 116.66 57.5929 116.359C56.5408 115.947 55.4624 115.605 54.3649 115.336C54.3649 115.336 55.4409 118.285 56.1134 118.624C56.7859 118.963 58.2116 118.575 58.2116 118.575Z" fill="#00ADB5"/>
<path opacity="0.5" d="M54.3918 115.336C54.4241 115.428 55.4678 118.29 56.1403 118.624C56.5767 118.78 57.0481 118.812 57.5014 118.715C57.7412 118.683 57.9784 118.634 58.2116 118.57C58.2116 118.57 58.0394 116.66 57.5929 116.359C56.5567 115.945 55.4923 115.605 54.4079 115.342L54.3918 115.336Z" fill="white"/>
<path opacity="0.2" d="M54.3918 115.336C54.4241 115.428 55.4678 118.29 56.1403 118.624C56.5767 118.78 57.0481 118.812 57.5014 118.715C58.1309 118.295 56.7967 117.833 56.603 117.682C56.4093 117.531 56.5277 117.386 56.603 117.279C56.6783 117.171 56.4308 116.918 56.1511 116.811C56.0893 116.788 56.0325 116.754 55.9841 116.71C55.9357 116.665 55.8966 116.612 55.8691 116.552C55.8416 116.493 55.8261 116.428 55.8237 116.363C55.8214 116.297 55.832 116.232 55.8552 116.17C55.9143 115.869 54.5855 115.401 54.4187 115.342L54.3918 115.336Z" fill="black"/>
<path d="M59.6158 117.424C58.9917 117.424 57.5714 118.107 57.1033 118.139C56.6353 118.172 54.3057 116.568 53.8054 116.305C53.305 116.041 48.915 115.449 48.915 115.449C48.915 115.449 51.8309 118.43 53.8054 118.516C53.193 118.704 52.5574 118.805 51.917 118.817C50.5636 118.535 49.1837 118.4 47.8013 118.414L50.4913 119.296L48.1295 119.597C49.23 119.795 50.3526 119.838 51.4651 119.727C52.3142 120.036 53.1867 120.277 54.0744 120.447C54.6853 120.606 55.3245 120.623 55.9429 120.496C56.5613 120.369 57.1423 120.102 57.6413 119.716C58.4967 119.027 61.3159 118.247 61.3159 118.247L60.3528 117.903C60.2853 117.763 60.1809 117.645 60.051 117.561C59.9211 117.476 59.7706 117.429 59.6158 117.424Z" fill="#00ADB5"/>
<path opacity="0.6" d="M50.5074 119.296L48.1456 119.603C49.2466 119.796 50.3689 119.837 51.4812 119.727C52.1656 119.978 52.8667 120.181 53.5794 120.334L54.1174 120.447C54.7283 120.606 55.3676 120.623 55.986 120.496C56.6043 120.369 57.1854 120.102 57.6844 119.716C58.2082 119.367 58.7764 119.09 59.3737 118.893L59.6911 118.774C59.7664 118.747 59.8471 118.715 59.9278 118.694C60.1054 118.629 60.2775 118.575 60.4335 118.527C60.9715 118.355 61.3535 118.247 61.3535 118.247L60.3905 117.903C60.3217 117.761 60.2148 117.641 60.0818 117.556C59.9488 117.472 59.7949 117.426 59.6373 117.424C59.0291 117.51 58.4355 117.678 57.8727 117.924C57.6322 118.024 57.3814 118.096 57.1248 118.139C56.6568 118.177 54.3272 116.568 53.8269 116.305C53.0046 116.068 52.1643 115.899 51.3144 115.799C50.1147 115.605 48.9365 115.449 48.9365 115.449C48.9365 115.449 50.954 117.515 52.7724 118.258C53.0734 118.384 53.3901 118.469 53.7139 118.511H53.8C53.1952 118.698 52.5664 118.798 51.9331 118.807C51.6179 118.725 51.2981 118.662 50.9755 118.618C49.9291 118.474 48.8738 118.404 47.8174 118.408L50.5074 119.296Z" fill="white"/>
<path opacity="0.2" d="M57.8511 117.924C58.1438 117.895 58.4381 117.961 58.6904 118.113C58.8733 118.312 59.0455 118.731 59.3468 118.893L59.6642 118.774C59.7395 118.747 59.8202 118.715 59.9009 118.694C60.0785 118.629 60.2506 118.575 60.4066 118.527C60.4242 118.318 60.4097 118.107 60.3636 117.903C60.2948 117.761 60.1879 117.641 60.0549 117.556C59.9219 117.472 59.768 117.426 59.6104 117.424C59.0041 117.51 58.4123 117.679 57.8511 117.924Z" fill="black"/>
<path opacity="0.2" d="M48.915 115.449C48.915 115.449 50.9325 117.515 52.7509 118.258C53.0583 118.365 53.3729 118.449 53.6924 118.511H53.7839C55.2526 118.742 55.3979 118.511 55.3979 118.511C55.3979 118.511 54.8975 118.365 54.8599 118.365C54.8222 118.365 55.0697 118.204 54.7469 118.086C54.4241 117.967 54.4779 117.806 54.4779 117.806C54.1588 117.708 53.852 117.575 53.5633 117.408C53.531 117.311 53.6763 117.149 53.2781 117.069C52.88 116.988 53.2781 116.784 52.6379 116.558C51.9977 116.332 52.186 116.208 52.186 116.208C51.8533 116.16 51.5424 116.014 51.2929 115.788C50.0932 115.605 48.915 115.449 48.915 115.449Z" fill="black"/>
<path opacity="0.2" d="M50.5074 119.296L48.1456 119.603C49.2466 119.796 50.3689 119.837 51.4812 119.727C52.1656 119.978 52.8667 120.181 53.5794 120.334C53.8538 120.189 53.0845 119.947 52.7455 119.796C52.3151 119.57 52.3797 119.624 52.5411 119.511C52.7025 119.398 52.5411 119.366 52.0031 119.253C51.4651 119.14 51.6211 119.027 51.3198 118.796C51.2013 118.727 51.0723 118.678 50.9378 118.651C49.8914 118.506 48.8361 118.436 47.7798 118.441L50.5074 119.296Z" fill="black"/>
<path d="M60.369 117.903L60.0946 118.096L60.2614 118.575L61.332 118.247L60.369 117.903Z" fill="#00ADB5"/>
<path d="M193.449 50.4751C192.308 49.765 187.638 54.7791 185.422 55.4355C186.988 55.969 188.684 55.9916 190.264 55.5001C192.728 54.6446 194.648 51.223 193.449 50.4751Z" fill="#00ADB5"/>
<path opacity="0.4" d="M185.422 55.414C186.988 55.9475 188.684 55.9701 190.264 55.4785C192.706 54.6231 194.632 51.1745 193.427 50.4536C193.158 50.2868 192.69 50.4536 192.104 50.7818C190.237 51.9008 187.111 54.9513 185.422 55.414Z" fill="white"/>
<path opacity="0.2" d="M185.422 55.414C185.422 55.414 187.418 55.6292 187.692 55.3279C187.833 55.1752 188.007 55.0566 188.201 54.9811C188.395 54.9056 188.604 54.8751 188.811 54.8921C189.349 54.8921 189.586 54.6124 189.489 54.0528C189.392 53.4933 190.183 53.7892 190.656 53.6009C191.13 53.4126 190.603 53.2458 190.592 52.8531C190.581 52.4604 191.533 52.4173 191.593 52.0999C191.652 51.7825 191.27 51.8578 191.474 51.5296C191.679 51.2014 192.373 51.0885 192.125 50.7818C190.237 51.9008 187.111 54.9513 185.422 55.414Z" fill="black"/>
<path d="M197.134 49.496C195.988 49.2431 193.131 50.034 192.254 49.9372C191.469 49.8511 186.051 49.4852 186.051 49.4852C186.051 49.4852 183.216 49.7273 182.468 49.3776C179.493 47.9896 175.028 47.2256 175.028 47.2256L179.708 49.7919L175.259 49.5337C175.259 49.5337 177.174 50.4106 181.354 50.9271C182.81 51.7952 184.334 52.5437 185.911 53.1652C189.392 54.6178 191.905 53.5041 192.733 53.0629C194.541 52.0892 200.001 51.6265 200.001 51.6265L198.355 50.6635C198.283 50.3733 198.13 50.1097 197.914 49.903C197.697 49.6964 197.427 49.5553 197.134 49.496Z" fill="#00ADB5"/>
<path opacity="0.6" d="M179.692 49.7811L175.253 49.496C175.253 49.496 177.174 50.3783 181.354 50.8948C181.354 50.8948 181.424 50.9432 181.575 51.0293C182.685 51.6654 183.831 52.2367 185.007 52.7401C185.287 52.8693 185.588 52.993 185.906 53.1275C187.009 53.6034 188.196 53.8505 189.398 53.8538C190.558 53.8491 191.7 53.5649 192.728 53.0253C193.812 52.5619 194.954 52.2471 196.123 52.0892L196.752 51.9869L197.215 51.917L198.205 51.7879C199.243 51.6588 199.996 51.5942 199.996 51.5942L198.35 50.6258C198.268 50.345 198.112 50.0916 197.898 49.8926C197.684 49.6936 197.42 49.5566 197.134 49.496C196.381 49.3346 194.89 49.6144 193.712 49.8027C193.233 49.902 192.744 49.9489 192.254 49.9425C191.377 49.8457 185.981 49.4745 186.051 49.4906H186.008C185.648 49.4906 183.157 49.7004 182.468 49.3776C181.93 49.1355 181.365 48.9042 180.779 48.6998C178.903 48.0692 176.985 47.573 175.038 47.2149L179.692 49.7811Z" fill="white"/>
<path opacity="0.2" d="M193.712 49.8134C194.25 49.921 194.982 50.1201 195.186 50.4483C195.461 50.8787 195.628 51.7126 196.128 52.1161C196.338 52.0784 196.548 52.0407 196.752 52.0138L197.22 51.9439C197.564 51.8901 197.903 51.8471 198.21 51.8094C198.316 51.4314 198.363 51.0395 198.35 50.6473C198.276 50.3606 198.122 50.1005 197.907 49.8969C197.692 49.6932 197.424 49.5543 197.134 49.496C196.37 49.34 194.891 49.6251 193.712 49.8134Z" fill="black"/>
<path opacity="0.2" d="M179.692 49.7811L175.248 49.5229C175.248 49.5229 177.163 50.3998 181.344 50.9163C182.515 51.6206 183.736 52.2392 184.997 52.767C185.535 52.5949 184.211 51.8847 183.657 51.4489C182.936 50.9109 183.038 50.9916 183.372 50.8464C183.705 50.7011 183.372 50.572 182.516 50.19C181.661 49.808 181.892 49.652 181.408 49.114C181.218 48.9459 181.002 48.8096 180.768 48.7105C178.893 48.0767 176.974 47.5787 175.028 47.2202L179.692 49.7811Z" fill="black"/>
<path d="M198.355 50.6473L197.785 50.9163L197.919 51.8471L200.002 51.6157L198.355 50.6473Z" fill="#00ADB5"/>
<path opacity="0.3" d="M181.575 51.0508C182.685 51.6869 183.831 52.2582 185.007 52.7617C185.287 52.8908 185.588 53.0145 185.906 53.149C187.009 53.625 188.196 53.8721 189.398 53.8753C190.054 53.2121 190.599 52.4473 191.012 51.6103C191.012 51.6103 190.694 50.6527 189.026 50.0555C187.907 49.6682 184.077 50.459 181.575 51.0508Z" fill="black"/>
<path d="M190.958 49.9909C188.876 48.9149 176.97 53.6547 172.085 53.8753C175.363 54.9028 178.803 55.3133 182.231 55.0858C187.697 54.6608 193.142 51.1369 190.958 49.9909Z" fill="#00ADB5"/>
<path opacity="0.6" d="M172.085 53.8753C175.363 54.9028 178.803 55.3133 182.231 55.0858C187.692 54.6608 193.158 51.1369 190.958 49.991C190.468 49.7327 189.424 49.8027 188.058 50.0609C183.646 50.8948 175.824 53.7085 172.085 53.8753Z" fill="white"/>
<path opacity="0.2" d="M172.085 53.8753C172.085 53.8753 176.168 54.5908 176.873 54.3057C177.678 54.0043 178.548 53.919 179.396 54.0582C180.564 54.1658 181.134 53.913 181.166 53.2405C181.198 52.568 182.726 53.1006 183.792 52.993C184.857 52.8854 183.829 52.568 183.969 52.1107C184.109 51.6534 186.121 51.8201 186.379 51.4651C186.638 51.11 185.814 51.11 186.379 50.7818C186.944 50.4536 188.44 50.4751 188.058 50.0609C183.646 50.8948 175.824 53.7085 172.085 53.8753Z" fill="black"/>
<path d="M177.707 214.721H253.936C253.936 214.721 252.978 212.601 243.402 213.645C238.958 214.135 237.764 212.741 234.993 212.182C232.222 211.622 230.312 213.796 225.847 213.446C221.382 213.096 220.741 209.68 217.336 209.282C213.382 208.825 214.14 211.924 210.525 212.306C206.909 212.688 206.162 209.68 202.648 209.68C198.936 209.68 196.779 214.14 189.285 212.139C181.79 210.137 177.707 214.721 177.707 214.721Z" fill="#00ADB5"/>
<path opacity="0.7" d="M177.707 214.721H253.936C253.936 214.721 252.978 212.601 243.402 213.645C238.958 214.135 237.764 212.741 234.993 212.182C232.222 211.622 230.312 213.796 225.847 213.446C221.382 213.096 220.741 209.68 217.336 209.282C213.382 208.825 214.14 211.924 210.525 212.306C206.909 212.688 206.162 209.68 202.648 209.68C198.936 209.68 196.779 214.14 189.285 212.139C181.79 210.137 177.707 214.721 177.707 214.721Z" fill="white"/>
<path d="M13.3424 214.721H89.577C89.577 214.721 88.6194 212.601 79.043 213.645C74.5991 214.135 73.4047 212.741 70.6394 212.182C67.8741 211.622 65.9534 213.796 61.4934 213.446C57.0334 213.096 56.3878 209.68 52.9822 209.282C49.0333 208.825 49.7919 211.924 46.1712 212.306C42.5504 212.688 41.808 209.68 38.2948 209.68C34.588 209.68 32.4253 214.14 24.9309 212.139C17.4366 210.137 13.3424 214.721 13.3424 214.721Z" fill="#00ADB5"/>
<path opacity="0.7" d="M13.3424 214.721H89.577C89.577 214.721 88.6194 212.601 79.043 213.645C74.5991 214.135 73.4047 212.741 70.6394 212.182C67.8741 211.622 65.9534 213.796 61.4934 213.446C57.0334 213.096 56.3878 209.68 52.9822 209.282C49.0333 208.825 49.7919 211.924 46.1712 212.306C42.5504 212.688 41.808 209.68 38.2948 209.68C34.588 209.68 32.4253 214.14 24.9309 212.139C17.4366 210.137 13.3424 214.721 13.3424 214.721Z" fill="white"/>
<path d="M202.697 144.426L135.259 151.124C149.785 112.318 124.73 74.9596 124.73 74.9596C163.53 79.425 193.433 69.9024 193.981 69.7302C220.397 94.2576 202.697 144.426 202.697 144.426Z" fill="#00ADB5"/>
<path opacity="0.2" d="M201.68 143.565C201.68 143.565 208.303 104.291 196.241 76.7672C196.241 76.7672 205.521 113.561 192.663 138.885C176.781 134.005 156.935 141.397 156.935 141.397C169.416 138.906 182.301 142.102 182.882 142.247C161.9 139.299 139.111 148.423 138.809 148.542C139.057 148.235 147.552 137.475 146.083 116.429C144.614 95.382 129.33 79.5433 128.867 79.0537C145.47 89.9052 167.974 85.2945 167.974 85.2945C148.203 88.1083 130.422 77.0793 129.932 76.7726C130.47 76.9663 152.921 84.735 170.998 80.7C189.075 76.665 193.852 69.94 193.997 69.7302C193.459 69.9024 163.547 79.4142 124.746 74.9596C124.746 74.9596 149.779 112.318 135.275 151.124L202.713 144.426C202.379 144.125 202.041 143.845 201.696 143.565H201.68Z" fill="black"/>
<path d="M193.829 67.8745L121.851 74.0452L122.009 75.8945L193.988 69.7238L193.829 67.8745Z" fill="black"/>
<path d="M203.868 143.374L131.889 149.544L132.048 151.394L204.026 145.223L203.868 143.374Z" fill="black"/>
<path opacity="0.3" d="M193.829 67.8745L121.851 74.0452L122.009 75.8945L193.988 69.7238L193.829 67.8745Z" fill="white"/>
<path opacity="0.3" d="M203.868 143.374L131.889 149.544L132.048 151.394L204.026 145.223L203.868 143.374Z" fill="white"/>
<path d="M143.834 112.098L149.838 111.818C149.838 111.818 149.865 110.806 150.436 110.425C151.006 110.043 155.611 109.456 155.611 109.456C155.611 109.456 156.321 112.523 155.611 113.448C154.901 114.373 151.07 115.008 150.715 114.793C150.435 114.593 150.185 114.354 149.973 114.083L144.83 114.836L143.834 112.098Z" fill="#EBB376"/>
<path d="M122.842 101.252C128.937 102.236 134.791 107.347 137.131 109.155C139.471 110.963 147.202 111.646 147.202 111.646V115.541C147.202 115.541 142.134 118.199 136.281 117.564C130.427 116.929 121.168 108.482 121.168 108.482L122.842 101.252Z" fill="#00ADB5"/>
<path opacity="0.6" d="M147.202 111.646V115.541C147.202 115.541 142.134 118.199 136.281 117.564C133.23 117.23 129.255 114.777 126.145 112.507C123.288 110.419 121.168 108.482 121.168 108.482L121.782 105.819L122.858 101.252C128.959 102.236 134.812 107.347 137.152 109.155C139.493 110.963 147.202 111.646 147.202 111.646Z" fill="white"/>
<path d="M146.39 111.022V116.429L147.81 115.912V111.022H146.39Z" fill="#00ADB5"/>
<path opacity="0.7" d="M146.39 111.022V116.429L147.81 115.912V111.022H146.39Z" fill="white"/>
<path opacity="0.2" d="M126.145 112.507C123.288 110.419 121.168 108.482 121.168 108.482L121.782 105.819C122.105 105.853 122.421 105.939 122.718 106.072C122.718 106.072 126.43 108.794 126.145 112.507Z" fill="black"/>
<path d="M86.0154 81.3779V77.1546C86.0154 77.1546 84.7135 76.2561 84.8695 75.9871C85.0255 75.7181 84.692 71.7692 84.8695 71.1451C85.047 70.5211 88.5118 68.9931 88.6355 69.1653C88.7592 69.3375 89.4533 74.6314 89.2757 75.2662C89.0982 75.901 88.0168 76.622 88.0168 76.622L87.9307 81.9213L86.0154 81.3779Z" fill="#EBB376"/>
<path d="M101.305 97.986C96.5871 96.0653 88.996 86.0639 88.4849 79.8876L84.7727 81.3779C84.7727 81.3779 82.3248 94.2899 86.4781 99.3901C90.6315 104.49 100.009 105.652 100.009 105.652L101.305 97.986Z" fill="#00ADB5"/>
<path opacity="0.6" d="M101.305 97.986L100.412 103.253L100.009 105.652C97.4424 105.268 94.9327 104.571 92.536 103.576C90.3033 102.624 88.0437 101.273 86.505 99.3901C82.3517 94.3114 84.7996 81.3779 84.7996 81.3779L88.5064 79.8876C88.996 86.08 96.5871 96.0653 101.305 97.986Z" fill="white"/>
<path opacity="0.2" d="M100.412 103.253L100.009 105.652C97.4424 105.268 94.9327 104.571 92.536 103.576C95.1776 103.016 98.766 103.151 100.412 103.253Z" fill="black"/>
<path d="M116.988 123.81H96.6409C94.7095 134.376 88.6516 177.271 92.9987 210.579H99.8851C99.8851 210.579 99.2502 160.007 105.33 143.646C106.029 152.394 113.141 210.541 113.141 210.541H120.135C120.135 210.541 119.059 188.666 118.037 168.007C117.392 154.998 117.015 126.484 116.988 123.81Z" fill="#263238"/>
<path opacity="0.2" d="M105.33 143.646C104.327 146.511 103.566 149.455 103.054 152.448C102.489 144.663 104.765 136.41 104.765 136.41L105.33 143.646Z" fill="black"/>
<path d="M114.519 210.132H119.178C119.254 210.133 119.327 210.159 119.385 210.207C119.444 210.255 119.485 210.322 119.501 210.396L120.259 213.812C120.278 213.885 120.282 213.96 120.27 214.034C120.257 214.109 120.23 214.179 120.189 214.242C120.148 214.305 120.094 214.358 120.031 214.399C119.968 214.44 119.897 214.467 119.823 214.479H119.7C118.193 214.452 117.096 214.361 115.202 214.361C114.034 214.361 110.521 214.484 108.913 214.484C107.304 214.484 107.094 212.87 107.751 212.747C110.704 212.101 112.932 211.208 113.878 210.363C114.055 210.209 114.284 210.126 114.519 210.132Z" fill="#263238"/>
<path d="M94.7687 210.014H99.4278C99.5042 210.014 99.5782 210.041 99.6378 210.088C99.6973 210.136 99.739 210.203 99.756 210.277L100.509 213.688C100.525 213.761 100.526 213.836 100.513 213.909C100.499 213.983 100.472 214.053 100.431 214.115C100.391 214.178 100.338 214.231 100.277 214.274C100.215 214.316 100.146 214.345 100.073 214.361H99.9496C98.4432 214.361 97.3457 214.242 95.452 214.242C94.2899 214.242 90.7714 214.366 89.1627 214.366C87.5541 214.366 87.3443 212.752 88.0007 212.628C90.9597 211.988 93.1816 211.095 94.1285 210.245C94.3039 210.088 94.5334 210.005 94.7687 210.014Z" fill="#263238"/>
<path d="M99.2771 126.279L96.2105 126.242L96.4742 124.057H99.2771V126.279Z" fill="black"/>
<path d="M110.371 124.057H116.95V126.495L110.371 126.414V124.057Z" fill="black"/>
<path d="M109.639 126.403L100.009 126.29V124.057H109.639V126.403Z" fill="black"/>
<path d="M105.808 123.627H102.021V126.355H105.808V123.627Z" fill="white"/>
<path d="M116.95 124.057H96.4742C96.4742 124.057 96.2105 109.44 101.316 97.986L122.836 101.252C123.065 101.286 123.283 101.374 123.472 101.508C123.661 101.641 123.815 101.818 123.924 102.022C124.032 102.227 124.091 102.454 124.095 102.686C124.1 102.917 124.05 103.146 123.95 103.355C122.277 106.884 118.661 115.132 116.95 124.057Z" fill="#00ADB5"/>
<path opacity="0.6" d="M116.95 124.057H96.4742C96.4742 124.057 96.2105 109.44 101.316 97.986L122.836 101.252C123.065 101.286 123.283 101.374 123.472 101.508C123.661 101.641 123.815 101.818 123.924 102.022C124.032 102.227 124.091 102.454 124.095 102.686C124.1 102.917 124.05 103.146 123.95 103.355C122.277 106.884 118.661 115.132 116.95 124.057Z" fill="white"/>
<path d="M108.606 108.482C108.606 108.482 115.218 105.045 117.214 102.876H121.141C121.141 102.876 118.914 98.4486 114.067 97.4695C109.219 96.4903 106.702 98.6584 105.303 97.4695C105.303 97.4695 105.249 99.7882 106.755 100.746C106.532 103.456 107.181 106.167 108.606 108.482Z" fill="#00ADB5"/>
<path opacity="0.7" d="M108.606 108.482C108.606 108.482 115.218 105.045 117.214 102.876H121.141C121.141 102.876 118.914 98.4486 114.067 97.4695C109.219 96.4903 106.702 98.6584 105.303 97.4695C105.303 97.4695 105.249 99.7882 106.755 100.746C106.532 103.456 107.181 106.167 108.606 108.482Z" fill="white"/>
<path d="M109.246 99.3901C109.246 99.3901 107.584 101.171 108.579 107.772C108.579 107.772 115.326 103.543 116.386 100.552L109.246 99.3901Z" fill="#EBB376"/>
<path d="M110.29 101.289C110.29 101.289 114.594 102.069 116.402 100.552C115.573 99.5623 115.439 97.8622 115.611 96.0814C115.746 94.8232 115.984 93.5781 116.321 92.3585C116.429 91.9657 116.536 91.5999 116.644 91.2825L111.145 94.9839L111.178 95.2422C111.178 95.495 111.226 95.7479 111.231 96.0007C111.271 96.6112 111.19 97.2234 110.995 97.803C110.902 98.2062 110.748 98.5928 110.537 98.949C110.182 99.251 109.728 99.4119 109.262 99.4009C108.644 100.208 110.29 101.289 110.29 101.289Z" fill="#EBB376"/>
<path opacity="0.2" d="M110.521 98.9382C112.493 98.6041 114.287 97.5941 115.595 96.0814C115.73 94.8232 115.967 93.5781 116.305 92.3585L111.162 95.226C111.162 95.4789 111.21 95.7317 111.215 95.9846C111.255 96.595 111.174 97.2073 110.979 97.7869C110.887 98.192 110.732 98.5803 110.521 98.9382Z" fill="black"/>
<path d="M115.772 94.5643C117.655 94.3652 118.677 94.0263 118.365 92.762C118.053 91.4977 118.295 92.224 119.646 90.7445C120.996 89.265 121.136 89.4156 120.426 87.8447C119.716 86.2737 120.001 84.8103 120.351 83.5406C120.7 82.271 120.657 81.6846 119.156 81.0443C117.655 80.4041 116.515 80.2642 116.628 78.5265C116.741 76.7888 114.476 77.0739 113.4 77.4505C113.117 77.5577 112.803 77.5509 112.525 77.4314C112.247 77.312 112.026 77.0893 111.909 76.8103C111.909 76.8103 111.468 77.2353 112.318 77.8056C113.168 78.3758 113.233 78.9407 113.233 78.9407C112.485 78.5827 111.695 78.3206 110.882 78.1606C110.048 78.0907 107.654 79.2958 106.766 78.548C105.878 77.8002 104.517 78.548 104.517 78.548C104.517 78.548 105.792 78.3005 106.077 78.548C106.363 78.7955 106.615 79.8607 107.439 79.581C107.439 79.581 105.792 81.0659 104.517 80.501C103.242 79.9361 103.382 81.2272 102.317 81.8567C101.252 82.4862 101.112 81.9213 100.703 81.4209C100.294 80.9206 99.4224 81.4209 99.4224 81.4209C99.4224 81.4209 100.197 81.2272 100.412 81.8567C100.628 82.4862 101.693 84.1432 102.403 83.5622C103.113 82.9811 103.398 84.2616 103.398 84.2616C103.398 84.2616 102.618 83.9065 102.193 84.4015C101.768 84.8964 100.692 85.3968 100.412 84.9717C100.133 84.5467 100.133 86.8494 100.983 86.688C101.833 86.5266 102.193 87.8985 102.473 87.8877C102.753 87.8769 103.683 87.8877 103.683 87.8877C103.683 87.8877 103.608 89.1843 102.688 89.0605C102.415 89.0353 102.139 89.0881 101.895 89.2128C101.65 89.3375 101.446 89.5291 101.305 89.7653C101.305 89.7653 102.193 89.378 102.548 89.7653C102.903 90.1527 104.42 92.2294 105.33 91.5784C106.499 92.9538 108.009 93.9982 109.709 94.6073C112.62 95.6403 115.772 94.5643 115.772 94.5643Z" fill="#263238"/>
<path d="M107.164 82.4162C107.164 82.4162 105.609 87.4519 108.052 89.8406C110.494 92.2294 111.926 82.6422 111.926 82.6422L107.164 82.4162Z" fill="#263238"/>
<path d="M115.379 95.1238C114.68 95.8836 113.752 96.3937 112.736 96.5763C111.72 96.7589 110.672 96.604 109.752 96.1352C108.548 95.5472 107.615 94.5214 107.143 93.2677C107.074 93.0923 107.016 92.9126 106.971 92.7297C106.094 89.378 106.486 83.8043 110.129 82.2387C110.93 81.8901 111.808 81.7526 112.678 81.8393C113.548 81.926 114.382 82.234 115.099 82.734C115.816 83.234 116.394 83.9093 116.776 84.6956C117.159 85.4819 117.334 86.353 117.284 87.226C117.144 90.9704 117.236 93.1762 115.379 95.1238Z" fill="#EBB376"/>
<path d="M111.624 88.388C111.651 88.6947 111.474 88.926 111.275 88.926C111.075 88.926 110.909 88.6839 110.898 88.388C110.887 88.0921 111.054 87.85 111.248 87.85C111.441 87.85 111.613 88.0814 111.624 88.388Z" fill="#263238"/>
<path d="M108.176 88.4634C108.203 88.7646 108.025 89.0014 107.826 89.0014C107.627 89.0014 107.46 88.7593 107.455 88.4634C107.449 88.1675 107.605 87.9254 107.804 87.9254C108.004 87.9254 108.17 88.1728 108.176 88.4634Z" fill="#263238"/>
<path d="M109.273 88.5871C108.93 89.5277 108.46 90.4165 107.874 91.2287C108.086 91.3743 108.328 91.4714 108.582 91.5133C108.836 91.5551 109.096 91.5406 109.343 91.4708L109.273 88.5871Z" fill="#D58745"/>
<path d="M106.89 87.0699C106.918 87.0855 106.949 87.0937 106.981 87.0937C107.013 87.0937 107.045 87.0855 107.073 87.0699C107.248 86.9302 107.454 86.8331 107.673 86.7865C107.893 86.7398 108.12 86.7447 108.337 86.8009C108.382 86.8167 108.431 86.8142 108.475 86.7941C108.518 86.774 108.551 86.7379 108.568 86.6933C108.584 86.6491 108.581 86.6005 108.561 86.5582C108.541 86.5158 108.505 86.4832 108.461 86.4674C108.186 86.3862 107.896 86.3726 107.615 86.4279C107.334 86.4832 107.07 86.6056 106.847 86.7848C106.828 86.7982 106.811 86.8153 106.799 86.8352C106.786 86.8551 106.778 86.8773 106.775 86.9004C106.771 86.9236 106.772 86.9472 106.778 86.9699C106.784 86.9926 106.795 87.0138 106.809 87.0323C106.833 87.0502 106.861 87.063 106.89 87.0699Z" fill="#263238"/>
<path d="M112.275 87.0054C112.311 87.0035 112.345 86.9903 112.372 86.9677C112.404 86.9346 112.422 86.8902 112.422 86.844C112.422 86.7978 112.404 86.7534 112.372 86.7202C112.156 86.5278 111.895 86.3918 111.614 86.3242C111.332 86.2567 111.038 86.2596 110.758 86.3329C110.735 86.339 110.714 86.3497 110.696 86.3642C110.678 86.3788 110.662 86.397 110.651 86.4176C110.64 86.4383 110.634 86.461 110.632 86.4843C110.63 86.5077 110.632 86.5312 110.64 86.5535C110.655 86.5975 110.686 86.6343 110.727 86.6563C110.768 86.6783 110.815 86.6838 110.86 86.6718C111.08 86.6245 111.308 86.6295 111.526 86.6865C111.744 86.7435 111.945 86.8509 112.114 87C112.138 87.0136 112.166 87.0212 112.194 87.0221C112.222 87.023 112.25 87.0173 112.275 87.0054Z" fill="#263238"/>
<path d="M114.438 82.6099L114.094 83.3147C115.32 83.7505 115.041 85.1762 114.772 85.8218C114.201 87.1937 114.933 89.3672 115.971 90.2549C115.971 90.2549 116.02 89.6577 116.509 89.8137C116.999 89.9698 116.789 93.0955 115.756 94.5643C115.756 94.5643 117.289 93.2516 118.225 89.9859C119.092 86.9677 119.253 84.4391 118.661 83.2448L114.438 82.6099Z" fill="#263238"/>
<path d="M118.984 90.2603C118.787 90.6846 118.509 91.0659 118.164 91.3826C117.82 91.6992 117.417 91.9449 116.977 92.1056C115.804 92.5253 115.127 91.4977 115.363 90.3356C115.595 89.308 116.477 87.8178 117.698 87.9092C117.962 87.9333 118.216 88.0218 118.437 88.1671C118.658 88.3123 118.841 88.5098 118.968 88.7421C119.095 88.9744 119.163 89.2344 119.166 89.4992C119.168 89.7639 119.106 90.0253 118.984 90.2603Z" fill="#EBB376"/>
<path d="M115.761 88.9368L115.32 88.5871C115.32 88.5871 115.32 90.6046 114.626 91.0673C114.626 91.0673 112.42 90.9812 111.63 91.0673C111.085 91.2059 110.61 91.5365 110.29 91.998C110.29 91.998 108.644 91.3847 107.713 92.536C107.185 91.9096 106.801 91.175 106.589 90.384C106.589 90.384 106.115 93.9994 107.858 96.2159C109.601 98.4325 113.039 97.9644 114.788 96.684C116.536 95.4036 115.761 88.9368 115.761 88.9368Z" fill="#263238"/>
<path opacity="0.2" d="M115.761 88.9368L115.32 88.5871C115.32 88.5871 115.32 90.6046 114.626 91.0673C114.626 91.0673 112.42 90.9812 111.63 91.0673C111.085 91.2059 110.61 91.5365 110.29 91.998C110.29 91.998 108.644 91.3847 107.713 92.536C107.185 91.9096 106.801 91.175 106.589 90.384C106.589 90.384 106.115 93.9994 107.858 96.2159C109.601 98.4325 113.039 97.9644 114.788 96.684C116.536 95.4036 115.761 88.9368 115.761 88.9368Z" fill="white"/>
<path d="M110.107 93.1332C110.439 93.5587 110.74 94.0083 111.006 94.4782C111.097 94.4459 111.188 94.419 111.275 94.3814C112.485 93.9187 112.889 93.3054 112.98 92.7674C113.014 92.501 112.986 92.2305 112.899 91.9765C112.854 91.8327 112.787 91.6966 112.7 91.573C112.081 92.1908 111.336 92.6679 110.516 92.9718C110.29 93.074 110.107 93.1332 110.107 93.1332Z" fill="#263238"/>
<path d="M110.516 92.9664L110.79 93.3592C111.931 92.918 112.673 92.4553 112.899 91.9711C112.854 91.8273 112.787 91.6913 112.7 91.5676C112.081 92.1855 111.336 92.6626 110.516 92.9664Z" fill="white"/>
<path d="M111.275 94.3814C112.485 93.9187 112.889 93.3054 112.98 92.7674C112.522 92.9499 112.101 93.2142 111.737 93.5475C111.499 93.7701 111.338 94.0618 111.275 94.3814Z" fill="#DE5753"/>
<path d="M116.628 82.8197C116.447 82.3399 116.168 81.9035 115.807 81.5392C115.446 81.1748 115.013 80.8907 114.535 80.7054C112.975 80.1674 109.661 80.4203 108.181 81.2434C107.22 81.7647 106.226 82.223 105.206 82.6153C105.996 82.8052 106.754 83.1116 107.455 83.5245C108.531 84.1863 111.221 83.729 111.221 83.729C111.221 83.729 110.145 84.0087 110.118 84.3315C110.109 84.4241 110.08 84.5135 110.032 84.5934C109.985 84.6732 109.92 84.7414 109.843 84.7929C109.765 84.8445 109.677 84.8781 109.585 84.8914C109.493 84.9046 109.4 84.8972 109.311 84.8695C108.94 84.692 109.515 85.5044 110.118 85.2569C110.72 85.0094 110.182 84.3369 110.925 84.6167C111.667 84.8964 112.248 85.612 112.991 84.8319C113.733 84.0518 113.991 84.8695 115.336 84.2939C116.681 83.7182 116.628 82.8197 116.628 82.8197Z" fill="#263238"/>
<path d="M84.0571 80.8937L88.4849 79.043V80.431L84.0571 82.3517V80.8937Z" fill="#00ADB5"/>
<path opacity="0.7" d="M84.0571 80.8937L88.4849 79.043V80.431L84.0571 82.3517V80.8937Z" fill="white"/>
<path d="M152.99 53.1257L150.014 53.2942L158.821 208.866L161.797 208.698L152.99 53.1257Z" fill="black"/>
<path opacity="0.4" d="M152.99 53.1257L150.014 53.2942L158.821 208.866L161.797 208.698L152.99 53.1257Z" fill="white"/>
<path d="M60.5573 197.01L68.3959 222.334H189.29C189.29 222.334 202.272 208.502 207.168 192.114C207.168 192.114 112.092 199.56 60.5573 197.01Z" fill="#00ADB5"/>
<path opacity="0.2" d="M207.168 192.114C206.464 194.442 205.618 196.724 204.634 198.947C204.548 199.146 204.462 199.345 204.37 199.544C203.568 201.325 202.702 203.047 201.798 204.693C201.691 204.897 201.578 205.096 201.465 205.295C200.443 207.13 199.388 208.868 198.339 210.482C198.21 210.686 198.075 210.885 197.946 211.084C196.79 212.838 195.66 214.431 194.611 215.835L194.17 216.421C191.367 220.123 189.29 222.339 189.29 222.339H68.3959L67.0617 218.035L66.8949 217.497L65.5983 213.306L65.4262 212.768L64.1081 208.513L63.9413 207.975L62.6286 203.735L62.4564 203.197L60.5573 197.059C112.092 199.56 207.168 192.114 207.168 192.114Z" fill="white"/>
<g opacity="0.2">
<path d="M204.634 198.947C204.548 199.146 204.462 199.345 204.37 199.544C185.077 202.971 156.203 204.687 118.145 204.687C102.41 204.687 85.1134 204.393 66.2547 203.805C64.8021 203.757 63.5647 203.719 62.6286 203.698L62.4564 203.16L66.2708 203.278C130.96 205.29 177.459 203.837 204.634 198.947Z" fill="black"/>
</g>
<g opacity="0.2">
<path d="M201.798 204.693C201.691 204.897 201.578 205.096 201.465 205.295C183.173 208.222 156.999 209.691 123.293 209.691C106.228 209.691 87.2367 209.314 66.3193 208.561L64.1081 208.486L63.9413 207.948L66.3408 208.034C128.813 210.283 174.312 209.158 201.798 204.693Z" fill="black"/>
</g>
<g opacity="0.2">
<path d="M198.339 210.482C198.21 210.686 198.075 210.885 197.946 211.084C180.763 213.505 157.36 214.721 127.942 214.721C109.714 214.721 89.1968 214.255 66.3892 213.322L65.5983 213.29L65.4262 212.752L66.4107 212.795C126.306 215.238 170.578 214.458 198.339 210.482Z" fill="black"/>
</g>
<g opacity="0.2">
<path d="M194.611 215.835L194.17 216.421C176.9 218.218 154.245 219.111 126.382 219.111C108.689 219.111 88.9135 218.753 67.0563 218.035L66.8895 217.497C123.541 219.38 166.377 218.821 194.611 215.835Z" fill="black"/>
</g>
<path d="M204.978 193.18C204.978 193.18 202.826 204.273 187.81 222.334H190.081C190.081 222.334 201.718 211.622 207.178 193.18H204.978Z" fill="#00ADB5"/>
<path d="M160.114 196.155C160.114 196.155 158.554 210.482 153.733 222.334H151.463C151.463 222.334 154.723 215.313 157.279 196.155H160.114Z" fill="#00ADB5"/>
<path d="M62.4564 197.102L70.0261 222.409H67.7611L60.0193 197.01L62.4564 197.102Z" fill="#00ADB5"/>
<path d="M103.463 197.414C103.463 197.414 104.759 210.912 108.02 222.334H110.575C110.575 222.334 107.455 213.57 105.609 197.414H103.463Z" fill="#00ADB5"/>
<g opacity="0.1">
<path d="M204.978 193.18C204.978 193.18 202.826 204.273 187.81 222.334H190.081C190.081 222.334 201.718 211.622 207.178 193.18H204.978Z" fill="white"/>
<path d="M160.114 196.155C160.114 196.155 158.554 210.482 153.733 222.334H151.463C151.463 222.334 154.723 215.313 157.279 196.155H160.114Z" fill="white"/>
<path d="M62.4564 197.102L70.0261 222.409H67.7611L60.0193 197.01L62.4564 197.102Z" fill="white"/>
<path d="M103.463 197.414C103.463 197.414 104.759 210.912 108.02 222.334H110.575C110.575 222.334 107.455 213.57 105.609 197.414H103.463Z" fill="white"/>
</g>
<path d="M57.1625 193.965C57.1625 193.965 151.851 198.382 209.417 189.823L208.341 194.266C208.341 194.266 130.766 203.821 58.7765 198.71L57.1625 193.965Z" fill="#00ADB5"/>
<path d="M154.126 73.4101C154.077 73.4112 154.028 73.3981 153.986 73.3725L150.898 71.554C150.868 71.5358 150.841 71.5117 150.82 71.4831C150.799 71.4545 150.784 71.422 150.775 71.3875C150.767 71.353 150.765 71.3171 150.77 71.282C150.776 71.2468 150.788 71.2131 150.807 71.1828C150.824 71.1525 150.848 71.126 150.876 71.1049C150.904 71.0838 150.936 71.0686 150.97 71.0601C151.005 71.0515 151.04 71.0499 151.075 71.0553C151.109 71.0607 151.143 71.0729 151.173 71.0913L154.261 72.9421C154.313 72.9704 154.354 73.0155 154.377 73.0701C154.4 73.1246 154.405 73.1854 154.389 73.2427C154.373 73.2999 154.339 73.3502 154.291 73.3855C154.244 73.4207 154.186 73.4389 154.126 73.437V73.4101Z" fill="#263238"/>
<path d="M151.178 73.6684C151.135 73.6677 151.093 73.6572 151.055 73.6376C151.016 73.618 150.983 73.5899 150.957 73.5554C150.937 73.5265 150.922 73.4938 150.914 73.4591C150.906 73.4245 150.905 73.3886 150.911 73.3536C150.917 73.3186 150.93 73.2851 150.949 73.2551C150.968 73.2251 150.993 73.1992 151.022 73.1788L153.992 71.0591C154.02 71.0386 154.053 71.024 154.087 71.0161C154.121 71.0082 154.156 71.0073 154.191 71.0133C154.225 71.0193 154.259 71.0322 154.288 71.0511C154.318 71.0701 154.343 71.0947 154.363 71.1236C154.404 71.1818 154.42 71.2536 154.409 71.3239C154.398 71.3941 154.361 71.4574 154.304 71.5002L151.334 73.6146C151.29 73.6498 151.235 73.6688 151.178 73.6684Z" fill="#263238"/>
<path d="M158.71 149.381C158.671 149.382 158.632 149.373 158.597 149.354L155.235 147.778C155.198 147.766 155.165 147.746 155.137 147.721C155.109 147.695 155.087 147.664 155.072 147.629C155.057 147.594 155.05 147.557 155.05 147.519C155.051 147.481 155.059 147.443 155.075 147.409C155.091 147.374 155.115 147.344 155.143 147.319C155.172 147.294 155.206 147.276 155.242 147.265C155.278 147.254 155.317 147.251 155.354 147.256C155.392 147.261 155.428 147.274 155.46 147.294L158.823 148.87C158.894 148.885 158.957 148.928 158.997 148.989C159.037 149.05 159.05 149.124 159.035 149.195C159.021 149.267 158.978 149.329 158.917 149.369C158.856 149.409 158.781 149.423 158.71 149.408V149.381Z" fill="#263238"/>
<path d="M155.482 149.661C155.439 149.662 155.396 149.652 155.357 149.633C155.319 149.613 155.286 149.584 155.261 149.548C155.241 149.519 155.226 149.486 155.218 149.452C155.21 149.417 155.209 149.381 155.215 149.346C155.221 149.311 155.234 149.278 155.253 149.248C155.272 149.218 155.297 149.192 155.326 149.171L158.194 147.17C158.222 147.149 158.255 147.135 158.29 147.127C158.324 147.119 158.36 147.118 158.395 147.124C158.43 147.13 158.464 147.143 158.494 147.162C158.524 147.181 158.55 147.205 158.57 147.234C158.61 147.293 158.626 147.366 158.614 147.436C158.602 147.506 158.563 147.569 158.506 147.611L155.633 149.612C155.589 149.644 155.536 149.66 155.482 149.661Z" fill="#263238"/>
<path d="M242.606 223.937H229.511L216.276 223.458C215.745 222.835 214.988 222.448 214.172 222.382C212.047 222.038 205.489 222.92 204.618 222.382C203.746 221.844 204.892 220.198 202.724 219.095C200.556 217.992 196.725 222.673 194.595 221.5C192.464 220.327 193.142 214.377 189.914 214.388C186.686 214.398 190.764 219.509 188.639 220.359C186.514 221.209 163.428 217.852 151.452 215.985C139.477 214.119 145.432 215.313 145.857 218.476C146.282 221.64 135.431 219.068 119.043 217.481C102.656 215.894 99.8851 220.784 95.6295 221.215C91.3739 221.645 84.2938 216.814 78.5749 217.842C72.856 218.869 75.6213 220.359 72.2157 220.575C68.8102 220.79 60.9715 215.022 60.5465 217.481C60.1215 219.94 63.7422 219.509 62.4457 221C61.1491 222.49 54.1874 220.354 51.7879 220.575C49.3884 220.795 49.6359 222.334 49.6359 222.334C49.6359 222.334 42.7118 221.414 43.2498 223.948H29.9182C30.3432 225.82 30.9942 225.056 48.5653 225.691C66.1363 226.326 57.1733 227.778 59.4329 230.038C61.6925 232.298 83.3577 229.123 93.1332 230.038C102.909 230.953 93.768 232.502 99.2771 234.208C104.786 235.913 129.529 234.208 135.737 234.842C141.946 235.477 134.425 237.398 153.793 237.613C173.161 237.828 164.773 236.811 167.958 235.273C172.354 233.121 182.097 233.567 185.142 232.927C188.187 232.287 186.562 230.038 193.164 230.038C199.765 230.038 223.598 230.377 226.369 230.038C229.14 229.699 227.219 226.116 236.053 226.073C244.887 226.03 242.606 223.937 242.606 223.937Z" fill="#00ADB5"/>
<path opacity="0.7" d="M242.606 223.937H229.511L216.276 223.458C215.745 222.835 214.988 222.448 214.172 222.382C212.047 222.038 205.489 222.92 204.618 222.382C203.746 221.844 204.892 220.198 202.724 219.095C200.556 217.992 196.725 222.673 194.595 221.5C192.464 220.327 193.142 214.377 189.914 214.388C186.686 214.398 190.764 219.509 188.639 220.359C186.514 221.209 163.428 217.852 151.452 215.985C139.477 214.119 145.432 215.313 145.857 218.476C146.282 221.64 135.431 219.068 119.043 217.481C102.656 215.894 99.8851 220.784 95.6295 221.215C91.3739 221.645 84.2938 216.814 78.5749 217.842C72.856 218.869 75.6213 220.359 72.2157 220.575C68.8102 220.79 60.9715 215.022 60.5465 217.481C60.1215 219.94 63.7422 219.509 62.4457 221C61.1491 222.49 54.1874 220.354 51.7879 220.575C49.3884 220.795 49.6359 222.334 49.6359 222.334C49.6359 222.334 42.7118 221.414 43.2498 223.948H29.9182C30.3432 225.82 30.9942 225.056 48.5653 225.691C66.1363 226.326 57.1733 227.778 59.4329 230.038C61.6925 232.298 83.3577 229.123 93.1332 230.038C102.909 230.953 93.768 232.502 99.2771 234.208C104.786 235.913 129.529 234.208 135.737 234.842C141.946 235.477 134.425 237.398 153.793 237.613C173.161 237.828 164.773 236.811 167.958 235.273C172.354 233.121 182.097 233.567 185.142 232.927C188.187 232.287 186.562 230.038 193.164 230.038C199.765 230.038 223.598 230.377 226.369 230.038C229.14 229.699 227.219 226.116 236.053 226.073C244.887 226.03 242.606 223.937 242.606 223.937Z" fill="white"/>
<path opacity="0.4" d="M210.455 224.83C209.589 223.593 204.354 226.105 203.073 224.83C201.793 223.555 203.681 219.558 198.339 222.409C192.997 225.261 193.287 225.051 191.937 223.308C190.586 221.565 188.741 222.07 189.876 223.308C191.012 224.545 185.196 225.051 180.23 223.308C175.264 221.565 162.476 220.655 165.166 223.308C167.856 225.96 160.324 223.749 158.075 223.937C155.826 224.125 157.86 225.626 155.767 226.008C153.674 226.39 138.718 226.799 140.052 226.961C142.468 227.24 215.399 226.961 215.399 226.961C215.399 226.961 214.119 226.337 210.998 226.008C211.02 226.008 211.434 226.251 210.455 224.83Z" fill="white"/>
<path opacity="0.4" d="M110.575 232.066C110.182 232.723 138.347 232.066 139.993 232.491C141.639 232.916 144.329 233.772 147.31 233.347C150.29 232.922 161.502 233.858 163.202 233.46C164.902 233.062 162.352 230.544 160.932 230.027C159.512 229.511 160.114 231.797 160.114 231.797C160.114 231.797 157.526 231.964 154.266 230.027C151.006 228.09 149.3 230.081 150.005 231.076C150.71 232.072 146.32 233.261 143.904 231.388C141.489 229.516 139.993 231.388 139.993 231.388C139.993 231.388 111.425 230.646 110.575 232.066Z" fill="white"/>
<path opacity="0.4" d="M133.548 224.244C130.723 222.334 121.631 220.004 113.104 220.289C104.576 220.575 107.283 223.609 105.798 223.937C104.313 224.265 100.606 225.115 94.688 223.27C88.77 221.425 88.3019 222.667 88.3019 224.244C88.3019 225.82 83.3362 224.292 82.0558 224.421C80.7753 224.55 82.201 226.197 80.6408 226.008C79.0806 225.82 71.6993 225.088 71.5594 226.008H113.852C113.852 226.008 112.566 223.453 115.686 223.921C118.807 224.389 119.092 224.577 119.232 223.136C119.371 221.694 123.918 222.307 126.613 223.136C128.193 223.604 129.558 224.616 130.465 225.992C130.465 225.992 130.239 224.228 131.901 224.228C133.564 224.228 132.886 226.008 132.886 226.008C132.886 226.008 134.92 225.175 133.548 224.244Z" fill="white"/>
</svg>
