<svg width="28" height="28" viewBox="0 0 28 28" fill="none" xmlns="http://www.w3.org/2000/svg">
<g clip-path="url(#clip0_368_1138)">
<path d="M14 0.4375C6.26613 0.4375 0 6.50781 0 14C0 21.4922 6.26613 27.5625 14 27.5625C21.7339 27.5625 28 21.4922 28 14C28 6.50781 21.7339 0.4375 14 0.4375ZM18.5161 9.625C19.5153 9.625 20.3226 10.407 20.3226 11.375C20.3226 12.343 19.5153 13.125 18.5161 13.125C17.5169 13.125 16.7097 12.343 16.7097 11.375C16.7097 10.407 17.5169 9.625 18.5161 9.625ZM9.48387 9.625C10.4831 9.625 11.2903 10.407 11.2903 11.375C11.2903 12.343 10.4831 13.125 9.48387 13.125C8.48468 13.125 7.67742 12.343 7.67742 11.375C7.67742 10.407 8.48468 9.625 9.48387 9.625ZM20.4806 18.9328C18.8718 20.8031 16.5121 21.875 14 21.875C11.4879 21.875 9.12823 20.8031 7.51935 18.9328C6.75161 18.0414 8.14032 16.9258 8.90806 17.8117C10.1726 19.2828 12.0242 20.1195 14 20.1195C15.9758 20.1195 17.8274 19.2773 19.0919 17.8117C19.8484 16.9258 21.2427 18.0414 20.4806 18.9328Z" fill="#9CA7BB"/>
</g>
<defs>
<clipPath id="clip0_368_1138">
<rect width="28" height="28" fill="white"/>
</clipPath>
</defs>
</svg>
