<svg width="32" height="32" viewBox="0 0 32 32" fill="none" xmlns="http://www.w3.org/2000/svg">
<path d="M16 2C13.2311 2 10.5243 2.82109 8.22202 4.35943C5.91973 5.89777 4.12532 8.08427 3.06569 10.6424C2.00607 13.2006 1.72882 16.0155 2.26901 18.7313C2.80921 21.447 4.14258 23.9416 6.10051 25.8995C8.05845 27.8574 10.553 29.1908 13.2687 29.731C15.9845 30.2712 18.7994 29.9939 21.3576 28.9343C23.9157 27.8747 26.1022 26.0803 27.6406 23.778C29.1789 21.4757 30 18.7689 30 16C30 12.287 28.525 8.72601 25.8995 6.1005C23.274 3.475 19.713 2 16 2ZM9.00001 16.41L7.59001 15L9.59001 13L7.59001 11L9.00001 9.59L11 11.59L13 9.59L14.41 11L12.41 13L14.41 15L13 16.41L11 14.41L9.00001 16.41ZM16 25C15.4067 25 14.8266 24.8241 14.3333 24.4944C13.8399 24.1648 13.4554 23.6962 13.2284 23.1481C13.0013 22.5999 12.9419 21.9967 13.0577 21.4147C13.1734 20.8328 13.4591 20.2982 13.8787 19.8787C14.2982 19.4591 14.8328 19.1734 15.4147 19.0576C15.9967 18.9419 16.5999 19.0013 17.1481 19.2284C17.6962 19.4554 18.1648 19.8399 18.4944 20.3333C18.8241 20.8266 19 21.4067 19 22C19 22.7956 18.6839 23.5587 18.1213 24.1213C17.5587 24.6839 16.7957 25 16 25ZM24.41 15L23 16.41L21 14.41L19 16.41L17.59 15L19.59 13L17.59 11L19 9.59L21 11.59L23 9.59L24.41 11L22.41 13L24.41 15Z" fill="#9CA7BB"/>
</svg>
