<svg width="22" height="22" viewBox="0 0 22 22" fill="none" xmlns="http://www.w3.org/2000/svg">
<path d="M8.31111 16.225C8.06667 15.9806 7.94933 15.6852 7.95911 15.3389C7.9697 14.9926 8.09722 14.6972 8.34167 14.4528L10.5722 12.2222H1.22222C0.875926 12.2222 0.585852 12.1049 0.352 11.8702C0.117333 11.6364 0 11.3463 0 11C0 10.6537 0.117333 10.3632 0.352 10.1286C0.585852 9.8947 0.875926 9.77778 1.22222 9.77778H10.5722L8.31111 7.51667C8.06667 7.27222 7.94444 6.98215 7.94444 6.64644C7.94444 6.30993 8.06667 6.01944 8.31111 5.775C8.55556 5.53056 8.84604 5.40833 9.18255 5.40833C9.51826 5.40833 9.80833 5.53056 10.0528 5.775L14.4222 10.1444C14.5444 10.2667 14.6312 10.3991 14.6826 10.5417C14.7331 10.6843 14.7583 10.837 14.7583 11C14.7583 11.163 14.7331 11.3157 14.6826 11.4583C14.6312 11.6009 14.5444 11.7333 14.4222 11.8556L10.0222 16.2556C9.79815 16.4796 9.51826 16.5917 9.18255 16.5917C8.84604 16.5917 8.55556 16.4694 8.31111 16.225ZM2.44444 22C1.77222 22 1.19656 21.7609 0.717444 21.2826C0.239148 20.8034 0 20.2278 0 19.5556V15.8889C0 15.5426 0.117333 15.2521 0.352 15.0174C0.585852 14.7836 0.875926 14.6667 1.22222 14.6667C1.56852 14.6667 1.859 14.7836 2.09367 15.0174C2.32752 15.2521 2.44444 15.5426 2.44444 15.8889V19.5556H19.5556V2.44444H2.44444V6.11111C2.44444 6.45741 2.32752 6.74748 2.09367 6.98133C1.859 7.216 1.56852 7.33333 1.22222 7.33333C0.875926 7.33333 0.585852 7.216 0.352 6.98133C0.117333 6.74748 0 6.45741 0 6.11111V2.44444C0 1.77222 0.239148 1.19656 0.717444 0.717444C1.19656 0.239148 1.77222 0 2.44444 0H19.5556C20.2278 0 20.8034 0.239148 21.2826 0.717444C21.7609 1.19656 22 1.77222 22 2.44444V19.5556C22 20.2278 21.7609 20.8034 21.2826 21.2826C20.8034 21.7609 20.2278 22 19.5556 22H2.44444Z" fill="black"/>
</svg>
